{"glyphs":{"0":{"ha":1037,"x_min":37,"x_max":1000,"o":"m 532 229 q 636 260 588 231 q 722 345 691 292 q 753 463 753 399 q 722 581 753 528 q 636 667 691 635 q 532 697 588 694 l 532 944 q 760 880 654 941 q 935 704 871 814 q 1000 463 1000 593 q 935 222 1000 333 q 760 47 871 111 q 532 -18 654 -15 l 532 229 m 481 695 q 401 667 438 688 q 315 581 347 635 q 283 463 283 527 q 315 345 283 399 q 401 260 347 292 q 481 231 439 237 l 481 -17 q 277 46 372 -9 q 102 222 166 111 q 37 463 37 333 q 102 705 37 593 q 277 880 165 815 q 481 943 372 935 l 481 695 z "},"1":{"ha":395,"x_min":74,"x_max":321,"o":"m 321 0 l 74 0 l 74 926 l 321 926 l 321 0 z "},"2":{"ha":772,"x_min":37,"x_max":726,"o":"m 542 227 l 723 227 l 723 0 l 96 0 l 424 471 q 431 481 427 474 q 435 487 433 484 q 439 492 437 490 l 459 524 q 487 604 487 566 q 473 656 487 631 q 436 694 458 681 q 383 707 413 707 q 306 675 338 707 q 274 597 274 643 q 291 541 274 564 q 343 498 309 515 l 206 302 q 37 597 37 417 q 65 730 37 665 q 140 842 93 795 q 250 917 186 889 q 383 944 311 944 q 554 898 475 944 q 680 772 633 851 q 726 603 726 694 q 704 485 726 542 q 625 347 683 430 l 542 227 z "},"3":{"ha":620,"x_min":46,"x_max":574,"o":"m 46 32 l 46 252 q 114 218 87 227 q 178 209 144 209 q 286 249 242 209 q 328 351 328 289 q 300 438 328 401 q 224 496 273 475 q 107 515 174 515 l 206 699 l 46 699 l 46 926 l 565 926 l 397 629 q 497 553 460 593 q 555 458 535 511 q 574 340 574 406 q 528 159 574 241 q 403 29 483 77 q 227 -18 323 -18 q 137 -7 178 -18 q 46 32 96 5 z "},"4":{"ha":793,"x_min":37,"x_max":747,"o":"m 664 0 l 416 0 l 416 680 l 271 426 l 375 426 l 375 218 l 37 218 l 37 418 l 332 926 l 664 926 l 664 426 l 747 426 l 747 218 l 664 218 l 664 0 z "},"5":{"ha":646,"x_min":56,"x_max":610,"o":"m 61 39 l 61 254 q 153 212 114 224 q 224 201 189 201 q 294 216 264 201 q 341 259 324 231 q 357 321 357 287 q 97 476 357 476 q 56 475 68 476 l 116 926 l 586 926 l 586 699 l 296 699 l 288 633 q 421 604 361 628 q 522 540 480 580 q 587 446 564 499 q 610 326 610 392 q 564 153 610 233 q 437 27 517 73 q 262 -18 357 -18 q 160 -5 208 -18 q 61 39 116 7 z "},"6":{"ha":842,"x_min":37,"x_max":806,"o":"m 103 595 l 273 926 l 551 926 l 327 490 q 284 360 284 408 q 324 264 284 304 q 421 224 364 224 q 521 264 480 224 q 561 363 561 304 q 517 467 561 430 q 395 505 474 505 l 380 505 l 500 736 q 626 688 568 722 q 723 605 684 654 q 785 495 764 553 q 806 365 806 435 q 754 172 806 260 q 614 33 701 81 q 418 -18 526 -18 q 272 12 343 -18 q 149 95 200 41 q 67 218 97 148 q 37 365 37 290 q 54 476 37 417 q 103 595 72 536 z "},"7":{"ha":671,"x_min":46,"x_max":671,"o":"m 366 0 l 106 0 l 329 680 l 46 680 l 46 926 l 671 926 l 366 0 z "},"8":{"ha":752,"x_min":41,"x_max":710,"o":"m 623 524 q 667 466 648 495 q 700 391 688 431 q 710 307 710 351 q 685 180 710 238 q 613 76 660 122 q 506 7 568 31 q 376 -18 446 -18 q 246 7 305 -18 q 138 77 186 31 q 66 182 92 123 q 41 307 41 240 q 65 429 41 374 q 141 537 88 481 l 376 615 q 429 637 406 615 q 451 689 451 659 q 429 743 451 722 q 376 764 408 764 q 323 743 345 764 q 301 688 301 720 q 323 637 301 659 q 331 630 327 633 l 130 564 q 119 587 124 576 q 104 629 108 608 q 100 675 100 650 q 136 810 100 749 q 236 909 172 873 q 376 944 300 944 q 484 924 433 944 q 572 867 536 903 q 631 781 610 829 q 652 675 652 731 q 642 608 652 638 q 613 551 635 585 l 336 404 q 322 398 329 401 q 315 393 318 396 q 281 360 294 380 q 267 307 267 336 q 298 227 267 260 q 376 194 330 194 q 454 227 422 194 q 485 304 485 258 q 453 380 485 349 q 405 409 432 401 l 623 524 z "},"9":{"ha":844,"x_min":37,"x_max":807,"o":"m 570 0 l 292 0 l 515 435 q 549 510 541 484 q 559 566 559 541 q 541 634 559 603 q 490 684 522 665 q 420 702 457 702 q 322 662 362 702 q 282 563 282 621 q 326 461 282 502 q 434 420 368 420 q 446 421 443 420 l 462 421 l 342 189 q 123 319 209 215 q 37 562 37 424 q 87 755 37 667 q 225 894 137 844 q 417 944 312 944 q 570 915 500 944 q 694 833 641 885 q 778 709 749 779 q 807 559 807 640 q 791 453 807 508 q 740 330 774 396 l 570 0 z "},"×":{"ha":0,"x_min":0,"x_max":0,"o":""},"ý":{"ha":0,"x_min":0,"x_max":0,"o":""}," ":{"ha":296,"x_min":0,"x_max":0,"o":""},"!":{"ha":429,"x_min":83,"x_max":346,"o":"m 83 113 q 101 178 83 146 q 150 227 119 210 q 215 244 181 244 q 267 234 243 244 q 308 206 292 222 q 336 165 323 191 q 346 113 346 142 q 307 20 346 58 q 215 -18 268 -18 q 149 -1 178 -18 q 101 47 117 18 q 83 113 83 79 m 318 296 l 111 296 l 93 926 l 336 926 l 318 296 z "},"\"":{"ha":663,"x_min":74,"x_max":589,"o":"m 488 583 l 484 576 l 451 576 l 448 583 q 431 613 442 591 q 412 647 424 625 q 396 677 406 657 q 378 711 395 681 q 353 774 361 748 q 347 823 347 797 q 363 884 347 855 q 408 928 379 911 q 468 944 436 944 q 528 928 500 944 q 572 884 555 912 q 589 824 589 855 q 552 701 589 776 q 488 583 524 642 m 216 583 l 212 576 l 178 576 l 174 583 q 106 711 137 645 q 81 774 88 748 q 74 823 74 797 q 90 884 74 855 q 135 928 106 911 q 195 944 163 944 q 255 928 227 944 q 300 884 283 912 q 316 824 316 855 q 279 701 316 776 q 216 583 251 642 z "},"#":{"ha":555,"x_min":46,"x_max":509,"o":"m 56 916 l 56 9 l 500 9 l 500 916 l 56 916 m 509 0 l 46 0 l 46 926 l 509 926 l 509 0 z "},"$":{"ha":582,"x_min":60,"x_max":503,"o":"m 218 886 l 218 1000 l 370 1000 l 370 937 q 398 938 397 938 q 503 926 446 938 l 503 694 q 442 704 467 704 q 374 682 401 704 q 347 625 347 661 q 396 509 347 583 q 474 377 460 410 q 502 248 502 316 q 466 108 502 168 q 361 12 431 47 l 361 -102 l 208 -102 l 208 -24 q 198 -24 205 -24 q 60 0 137 -24 l 60 231 q 151 206 110 206 q 222 227 195 206 q 248 279 248 249 q 238 322 248 301 q 196 388 229 341 q 114 530 138 471 q 91 647 91 587 q 125 783 91 719 q 218 886 159 846 z "},"%":{"ha":1103,"x_min":46,"x_max":1056,"o":"m 205 715 q 226 666 205 687 q 275 644 246 644 q 326 665 304 644 q 347 715 347 686 q 326 765 347 744 q 275 786 304 786 q 226 765 246 786 q 205 715 205 744 m 756 211 q 777 161 756 182 q 827 140 798 140 q 877 161 856 140 q 898 211 898 182 q 877 261 898 241 q 827 281 856 281 q 777 261 799 281 q 756 211 756 241 m 46 715 q 77 829 46 777 q 161 913 108 882 q 275 944 214 944 q 366 926 325 944 q 438 878 407 908 q 486 806 469 846 q 505 715 505 764 q 474 601 505 653 q 390 517 442 548 q 275 486 338 486 q 161 517 213 486 q 77 601 108 548 q 46 715 46 652 m 598 211 q 629 326 598 273 q 713 409 660 378 q 827 439 765 439 q 918 421 876 439 q 989 373 958 404 q 1038 301 1020 342 q 1056 211 1056 260 q 1025 96 1056 149 q 941 13 994 43 q 827 -18 889 -18 q 713 13 764 -18 q 629 96 660 43 q 598 211 598 149 m 368 0 l 145 0 l 731 926 l 954 926 l 368 0 z "},"&":{"ha":819,"x_min":56,"x_max":819,"o":"m 534 398 l 724 398 q 684 178 724 270 l 819 0 l 575 0 l 546 37 q 467 -6 505 6 q 379 -19 430 -19 q 216 24 291 -19 q 99 138 142 65 q 56 297 56 210 q 172 531 56 451 q 126 678 126 601 q 161 812 126 751 q 257 909 197 873 q 389 944 317 944 q 522 909 461 944 q 618 813 582 873 q 653 681 653 753 q 619 551 653 609 q 519 452 586 493 l 405 601 q 471 681 471 620 q 448 740 471 717 q 389 763 425 763 q 332 741 355 763 q 308 683 308 717 q 316 648 308 666 q 345 600 324 628 l 437 479 q 275 309 275 420 q 309 223 275 257 q 396 189 345 189 q 479 219 443 189 q 524 295 513 248 q 534 398 534 335 z "},"'":{"ha":390,"x_min":74,"x_max":316,"o":"m 216 583 l 212 576 l 178 576 l 174 583 q 106 711 137 645 q 81 774 88 748 q 74 823 74 797 q 90 884 74 855 q 135 928 106 911 q 195 944 163 944 q 255 928 227 944 q 300 884 283 912 q 316 824 316 855 q 279 701 316 776 q 216 583 251 642 z "},"(":{"ha":555,"x_min":132,"x_max":540,"o":"m 540 -161 l 355 -161 q 256 -14 296 -85 q 186 137 212 64 q 145 294 159 214 q 132 463 132 371 q 145 633 132 555 q 185 789 159 716 q 255 939 214 867 q 355 1087 298 1015 l 540 1087 q 456 926 487 997 q 399 775 420 848 q 367 623 377 699 q 356 463 356 549 q 367 303 356 377 q 399 151 377 227 q 456 0 420 78 q 540 -161 487 -70 z "},")":{"ha":555,"x_min":16,"x_max":423,"o":"m 201 -161 l 16 -161 q 156 149 112 1 q 199 463 199 293 q 189 623 199 547 q 157 774 179 698 q 100 926 135 848 q 16 1087 62 1008 l 201 1087 q 328 890 280 985 q 400 686 377 789 q 423 463 423 582 q 417 347 423 408 q 400 239 411 287 q 328 37 377 136 q 201 -161 281 -59 z "},"*":{"ha":711,"x_min":74,"x_max":636,"o":"m 289 926 l 420 926 l 420 743 l 596 800 l 636 675 l 463 618 l 570 469 l 463 391 l 354 541 l 248 391 l 140 469 l 248 618 l 74 675 l 115 800 l 289 744 l 289 926 z "},"+":{"ha":555,"x_min":46,"x_max":509,"o":"m 56 916 l 56 9 l 500 9 l 500 916 l 56 916 m 509 0 l 46 0 l 46 926 l 509 926 l 509 0 z "},",":{"ha":414,"x_min":65,"x_max":350,"o":"m 216 -167 l 78 -167 q 159 -12 118 -100 q 65 124 65 32 q 85 196 65 163 q 136 248 104 229 q 208 267 168 267 q 279 248 248 267 q 331 197 311 229 q 350 126 350 165 q 318 9 350 80 q 216 -167 286 -64 z "},"-":{"ha":525,"x_min":74,"x_max":451,"o":"m 451 256 l 74 256 l 74 460 l 451 460 l 451 256 z "},".":{"ha":414,"x_min":65,"x_max":349,"o":"m 65 124 q 84 196 65 164 q 136 248 103 229 q 207 267 168 267 q 279 248 247 267 q 330 196 311 229 q 349 124 349 164 q 308 24 349 65 q 207 -18 266 -18 q 107 24 149 -18 q 65 124 65 66 z "},"/":{"ha":723,"x_min":0,"x_max":723,"o":"m 224 -93 l 0 -93 l 498 1019 l 723 1019 l 224 -93 z "},":":{"ha":414,"x_min":65,"x_max":349,"o":"m 65 510 q 84 582 65 550 q 136 633 103 614 q 207 652 168 652 q 279 633 247 652 q 330 582 311 614 q 349 510 349 550 q 308 410 349 451 q 207 368 266 368 q 107 410 149 368 q 65 510 65 452 m 65 124 q 84 196 65 164 q 136 248 103 229 q 207 267 168 267 q 279 248 247 267 q 330 196 311 229 q 349 124 349 164 q 308 24 349 65 q 207 -18 266 -18 q 107 24 149 -18 q 65 124 65 66 z "},";":{"ha":414,"x_min":65,"x_max":350,"o":"m 65 510 q 84 582 65 550 q 136 633 103 614 q 207 652 168 652 q 279 633 247 652 q 330 582 311 614 q 349 510 349 550 q 308 410 349 451 q 207 368 266 368 q 107 410 149 368 q 65 510 65 452 m 216 -167 l 78 -167 q 159 -12 118 -100 q 65 124 65 32 q 85 196 65 163 q 136 248 104 229 q 208 267 168 267 q 279 248 248 267 q 331 197 311 229 q 350 126 350 165 q 318 9 350 80 q 216 -167 286 -64 z "},"<":{"ha":739,"x_min":69,"x_max":677,"o":"m 434 812 q 450 876 434 847 q 494 922 466 904 q 555 939 522 939 q 617 922 589 939 q 662 877 646 905 q 677 815 677 848 q 642 730 677 766 q 556 694 606 694 q 471 730 506 694 q 434 812 434 766 m 296 672 l 669 672 l 669 0 l 442 0 l 442 459 l 296 459 l 296 0 l 69 0 l 69 553 q 88 722 69 656 q 149 838 106 789 q 254 912 189 884 q 387 939 317 939 l 393 939 l 393 754 q 296 672 310 747 z "},"=":{"ha":809,"x_min":0,"x_max":809,"o":"m 223 0 l 0 0 l 586 926 l 809 926 l 223 0 z "},">":{"ha":739,"x_min":69,"x_max":669,"o":"m 296 672 l 442 672 l 442 935 l 669 935 l 669 0 l 442 0 l 442 459 l 296 459 l 296 0 l 69 0 l 69 553 q 83 709 69 647 q 128 821 96 769 q 348 939 203 939 q 393 935 373 939 l 393 750 q 296 672 310 735 z "},"?":{"ha":709,"x_min":46,"x_max":653,"o":"m 214 113 q 231 178 214 146 q 280 227 249 210 q 345 244 311 244 q 438 206 399 244 q 476 113 476 167 q 459 46 476 75 q 412 -1 442 17 q 345 -18 382 -18 q 279 -1 309 -18 q 231 47 248 18 q 214 113 214 79 m 452 306 l 452 296 l 239 296 l 239 311 q 262 449 239 404 q 349 534 283 494 q 420 585 408 569 q 441 642 441 608 q 414 707 441 680 q 349 734 387 734 q 285 709 312 734 q 258 644 258 682 q 260 616 258 629 l 47 616 q 46 644 46 648 q 87 795 46 726 q 199 904 128 864 q 352 944 269 944 q 503 904 433 944 q 613 794 572 863 q 653 643 653 724 q 636 540 653 587 q 585 452 618 491 q 499 376 553 413 q 458 345 466 355 q 452 306 452 335 z "},"@":{"ha":555,"x_min":46,"x_max":509,"o":"m 56 916 l 56 9 l 500 9 l 500 916 l 56 916 m 509 0 l 46 0 l 46 926 l 509 926 l 509 0 z "},"A":{"ha":857,"x_min":69,"x_max":787,"o":"m 353 463 l 540 463 l 540 553 q 526 642 540 612 q 487 684 513 667 q 429 700 460 700 q 368 682 395 700 q 328 633 340 663 q 317 553 317 609 l 317 463 l 317 463 l 318 253 l 317 253 l 317 0 l 69 0 l 69 552 q 78 658 69 614 q 104 743 86 703 q 151 816 123 783 q 274 911 201 877 q 429 944 345 944 q 578 913 509 944 q 700 823 648 882 q 767 707 746 769 q 787 552 787 645 l 787 0 l 540 0 l 540 253 l 353 253 l 353 463 z "},"B":{"ha":837,"x_min":74,"x_max":800,"o":"m 306 0 l 74 0 l 74 926 l 306 926 l 306 0 m 357 926 l 425 926 q 561 911 510 926 q 651 860 612 896 q 713 774 691 824 q 735 669 735 723 q 692 522 735 595 q 800 296 800 435 q 760 144 800 212 q 650 38 721 76 q 490 0 579 0 l 363 0 l 363 231 l 446 231 q 517 259 490 233 q 543 326 543 285 q 532 369 543 349 q 500 400 520 389 q 423 414 478 414 l 363 414 l 363 563 l 425 563 q 481 583 461 564 q 502 632 502 601 q 482 680 502 661 q 431 699 463 699 l 357 699 l 357 926 z "},"C":{"ha":671,"x_min":37,"x_max":634,"o":"m 634 246 l 634 -5 q 524 -18 578 -18 q 395 -4 456 -18 q 337 14 360 5 q 284 39 314 23 q 186 112 229 71 q 76 273 113 182 q 37 463 37 364 q 102 705 37 595 q 278 880 166 816 q 520 944 389 944 q 634 929 577 944 l 634 679 q 577 693 604 688 q 524 698 553 698 q 403 667 458 698 q 315 582 347 635 q 283 463 283 528 q 315 343 283 397 q 404 258 347 288 q 528 227 459 227 q 634 246 575 227 z "},"D":{"ha":905,"x_min":74,"x_max":869,"o":"m 321 0 l 74 0 l 74 926 l 321 926 l 321 0 m 371 925 q 555 901 484 922 q 710 813 637 876 q 796 714 760 770 q 850 597 830 663 q 869 465 869 534 q 852 341 869 401 q 805 228 836 279 q 730 132 774 175 q 631 59 686 89 q 517 14 573 27 q 382 0 460 0 l 363 0 l 363 247 l 389 247 q 511 273 458 247 q 594 348 564 299 q 623 460 623 396 q 591 580 623 528 q 500 658 559 630 q 371 685 444 684 l 371 925 z "},"E":{"ha":702,"x_min":41,"x_max":633,"o":"m 443 209 l 633 209 l 633 0 l 340 0 l 302 0 q 106 83 179 3 q 58 163 75 119 q 41 251 41 206 q 154 463 41 375 q 57 665 57 546 q 73 754 57 709 q 117 833 87 797 q 184 890 147 869 q 340 926 246 926 l 357 926 l 633 926 l 633 717 l 443 717 l 406 717 q 346 695 368 715 q 323 643 323 675 q 349 589 323 610 q 410 566 373 566 l 441 566 l 633 566 l 633 359 l 441 359 l 421 359 q 358 338 381 358 q 334 284 334 317 q 358 231 334 252 q 417 209 382 209 l 443 209 z "},"F":{"ha":820,"x_min":69,"x_max":787,"o":"m 317 0 l 69 0 l 69 518 l 69 552 q 91 707 70 644 q 157 823 110 768 q 232 888 189 862 q 326 930 277 916 q 429 944 376 944 q 559 921 498 944 q 670 854 621 897 q 749 749 719 809 q 779 662 770 706 q 787 544 787 617 l 787 528 l 541 528 l 541 538 l 541 552 q 526 642 541 612 q 487 684 513 667 q 429 700 460 700 q 368 682 395 700 q 327 634 340 664 q 317 553 317 610 l 317 463 l 604 463 l 604 250 l 317 250 l 317 0 z "},"G":{"ha":833,"x_min":37,"x_max":764,"o":"m 523 232 l 523 537 l 764 537 l 764 5 q 689 -8 728 -3 q 616 -16 651 -13 q 545 -18 582 -18 q 170 130 313 -18 q 71 281 104 197 q 37 460 37 367 q 52 578 37 521 q 94 689 66 635 q 163 787 122 741 q 248 862 204 833 q 387 925 311 905 q 560 945 462 945 q 656 941 611 945 q 764 926 709 935 l 764 677 q 585 702 675 702 q 370 644 446 702 q 309 566 330 613 q 286 465 286 518 q 316 350 286 406 q 339 313 328 328 q 365 286 351 299 q 393 264 380 273 q 451 241 422 248 q 523 232 479 233 z "},"H":{"ha":865,"x_min":74,"x_max":791,"o":"m 321 0 l 74 0 l 74 926 l 321 926 l 321 604 l 545 604 l 545 926 l 791 926 l 791 0 l 545 0 l 545 372 l 321 372 l 321 0 z "},"I":{"ha":395,"x_min":74,"x_max":321,"o":"m 321 0 l 74 0 l 74 926 l 321 926 l 321 0 z "},"J":{"ha":474,"x_min":28,"x_max":405,"o":"m 157 926 l 405 926 l 405 359 l 405 317 q 401 245 405 281 q 387 176 396 208 q 363 120 378 147 q 330 72 347 92 q 130 -18 254 -18 q 28 -6 83 -18 l 28 208 q 73 199 54 199 q 138 231 118 199 q 157 333 157 262 l 157 352 l 157 926 z "},"K":{"ha":830,"x_min":74,"x_max":765,"o":"m 321 0 l 74 0 l 74 926 l 321 926 l 321 594 l 359 594 l 378 594 q 458 611 430 594 q 497 668 486 628 q 509 781 509 709 l 509 812 l 509 926 l 756 926 l 756 760 l 756 728 q 736 595 755 644 q 661 503 715 548 q 724 431 701 467 q 756 345 747 393 q 765 221 765 296 l 765 195 l 765 0 l 518 0 l 518 221 l 518 244 q 467 362 517 330 q 431 378 450 374 q 368 382 412 382 l 355 382 l 321 382 l 321 0 z "},"L":{"ha":477,"x_min":69,"x_max":449,"o":"m 434 212 l 449 212 l 449 0 l 403 0 l 351 0 q 109 144 178 4 q 69 372 69 220 l 69 406 l 69 926 l 317 926 l 317 382 l 317 352 q 322 278 317 302 q 342 239 328 255 q 434 212 370 212 z "},"M":{"ha":1272,"x_min":69,"x_max":1202,"o":"m 317 537 l 317 0 l 69 0 l 69 528 l 69 559 q 79 667 69 620 q 109 754 88 713 q 163 829 130 793 q 283 914 213 884 q 428 944 353 944 q 634 879 538 944 q 841 944 731 944 q 946 929 895 944 q 1044 883 997 914 q 1124 812 1088 853 q 1169 742 1153 776 q 1194 663 1186 707 q 1202 568 1202 620 l 1202 528 l 1202 0 l 956 0 l 956 537 l 956 566 q 939 654 956 629 q 906 687 928 674 q 858 699 883 699 q 810 686 831 699 q 775 651 787 673 q 760 557 760 625 l 760 537 l 760 0 l 513 0 l 513 537 l 513 557 q 497 651 511 629 q 463 686 484 674 q 414 699 441 699 q 357 682 380 699 q 324 635 332 665 q 317 576 319 614 l 317 565 q 317 553 317 562 l 317 537 z "},"N":{"ha":857,"x_min":69,"x_max":787,"o":"m 317 553 l 317 0 l 69 0 l 69 518 l 69 552 q 93 716 70 651 q 170 836 114 779 q 428 944 273 944 q 578 913 509 944 q 700 823 648 882 q 767 707 746 769 q 787 552 787 645 l 787 518 l 787 0 l 540 0 l 540 553 l 540 576 q 512 669 540 637 q 431 700 484 700 q 349 666 380 700 q 317 576 317 631 l 317 553 z "},"O":{"ha":1037,"x_min":37,"x_max":1000,"o":"m 526 228 q 636 260 585 230 q 722 345 691 292 q 753 463 753 399 q 722 581 753 528 q 636 667 691 635 q 526 698 586 696 l 526 944 q 760 880 652 942 q 935 704 871 814 q 1000 463 1000 593 q 935 222 1000 333 q 760 47 871 111 q 526 -18 652 -16 l 526 228 m 478 694 q 401 667 437 688 q 315 581 347 635 q 283 463 283 527 q 315 345 283 399 q 401 260 347 292 q 478 231 437 238 l 478 -17 q 277 46 371 -8 q 102 222 166 111 q 37 463 37 333 q 102 705 37 593 q 277 880 165 815 q 478 943 371 934 l 478 694 z "},"P":{"ha":802,"x_min":74,"x_max":770,"o":"m 351 926 l 398 926 q 526 913 475 926 q 620 872 577 900 q 728 753 686 831 q 770 591 770 676 q 725 422 770 499 q 602 299 680 345 q 435 253 524 253 q 363 261 406 253 l 363 509 q 415 501 393 501 q 492 529 462 501 q 521 601 521 556 q 490 673 521 647 q 404 700 458 700 l 351 700 l 351 926 m 323 700 l 321 700 l 321 0 l 74 0 l 74 926 l 323 926 l 323 700 z "},"Q":{"ha":1037,"x_min":37,"x_max":1000,"o":"m 636 260 q 722 345 691 292 q 745 397 736 370 l 986 153 l 823 -10 l 815 -3 l 620 251 q 636 260 628 255 m 731 31 q 644 -3 685 9 q 526 -18 587 -18 q 284 47 397 -18 q 104 224 170 114 q 37 463 37 336 q 104 700 37 587 q 281 878 170 812 q 515 944 392 944 q 696 905 609 944 q 852 797 785 865 q 960 637 921 728 q 1000 452 1000 548 q 949 247 1000 345 l 753 443 q 753 463 753 453 q 722 581 753 528 q 636 667 691 635 q 518 698 583 698 q 401 667 454 698 q 315 581 347 635 q 283 463 283 527 q 315 345 283 399 q 401 260 347 292 q 518 228 455 228 q 593 240 557 228 l 731 31 z "},"R":{"ha":831,"x_min":74,"x_max":775,"o":"m 321 0 l 74 0 l 74 926 l 345 926 l 375 926 q 519 916 465 926 q 618 882 572 906 q 682 837 653 863 q 730 777 711 810 q 759 707 750 743 q 768 629 768 669 q 745 513 768 564 q 668 418 722 464 q 751 322 726 374 q 775 189 775 269 l 775 165 l 775 0 l 528 0 l 528 164 l 528 186 q 496 289 528 258 q 394 319 465 319 l 363 319 l 363 500 l 390 500 q 487 526 453 500 q 520 600 520 551 q 507 654 520 630 q 467 688 493 676 q 403 699 438 699 l 374 699 l 321 699 l 321 0 z "},"S":{"ha":517,"x_min":23,"x_max":466,"o":"m 23 5 l 23 235 q 111 212 69 212 q 183 233 155 212 q 212 283 212 252 q 173 372 212 317 q 121 450 149 408 q 91 505 106 475 q 54 653 54 580 q 94 802 54 736 q 205 906 133 868 q 363 944 277 944 q 414 941 392 944 q 466 931 438 939 l 466 699 q 406 710 431 710 q 336 688 363 710 q 309 631 309 666 q 359 514 309 590 q 437 383 418 422 q 465 254 465 323 q 427 112 465 174 q 321 16 389 49 q 164 -18 252 -18 q 23 5 98 -18 z "},"T":{"ha":692,"x_min":28,"x_max":664,"o":"m 469 0 l 222 0 l 222 680 l 28 680 l 28 926 l 664 926 l 664 680 l 469 680 l 469 0 z "},"U":{"ha":857,"x_min":69,"x_max":787,"o":"m 69 408 l 69 926 l 317 926 l 317 373 q 331 284 317 312 q 372 242 345 257 q 429 226 398 226 q 509 260 478 226 q 540 349 540 295 l 540 373 l 540 926 l 787 926 l 787 408 l 787 374 q 764 212 787 278 q 688 90 741 145 q 570 9 637 37 q 429 -18 503 -18 q 279 12 349 -18 q 157 103 212 42 q 107 177 126 138 q 78 264 87 216 q 69 374 69 309 l 69 408 z "},"V":{"ha":810,"x_min":46,"x_max":764,"o":"m 48 926 l 294 926 l 294 895 q 298 744 294 808 q 309 625 301 678 q 329 515 317 569 q 360 400 342 454 q 405 287 374 355 q 492 560 467 425 q 516 895 516 696 l 516 926 l 762 926 q 764 852 764 877 q 748 600 764 724 q 728 479 740 536 q 701 374 715 422 q 667 275 685 321 q 630 186 648 225 q 587 102 613 150 q 526 0 563 58 l 284 0 q 110 374 163 193 q 46 853 46 589 q 48 926 46 877 z "},"W":{"ha":1272,"x_min":69,"x_max":1202,"o":"m 69 398 l 69 926 l 317 926 l 317 389 q 317 369 317 375 l 317 342 q 414 227 321 227 q 465 242 442 227 q 501 281 490 257 q 513 368 513 308 l 513 389 l 513 926 l 760 926 l 760 389 l 760 367 q 764 307 760 329 q 779 269 766 287 q 858 227 806 227 q 943 277 917 227 q 956 362 956 301 l 956 389 l 956 926 l 1202 926 l 1202 398 l 1202 357 q 1179 209 1201 270 q 1108 96 1156 146 q 986 12 1055 41 q 841 -18 916 -18 q 634 47 731 -18 q 428 -18 538 -18 q 273 17 346 -18 q 147 114 198 52 q 112 168 127 139 q 88 226 97 197 q 74 290 78 258 q 69 366 69 321 l 69 398 z "},"X":{"ha":829,"x_min":56,"x_max":773,"o":"m 302 0 l 56 0 l 56 164 l 56 193 q 68 307 56 256 q 106 399 80 357 q 178 486 134 442 q 84 616 111 551 q 56 783 56 684 l 56 810 l 56 926 l 302 926 l 302 751 l 302 721 q 334 634 303 667 q 414 602 363 602 q 496 635 465 602 q 526 721 526 667 l 526 751 l 526 926 l 773 926 l 773 810 l 773 783 q 762 665 773 716 q 722 572 749 613 q 649 486 695 529 q 745 354 716 422 q 773 193 773 286 l 773 164 l 773 0 l 526 0 l 526 186 l 526 214 q 522 272 526 253 q 503 311 517 290 q 414 355 469 355 q 326 311 357 355 q 307 271 311 290 q 302 214 302 252 l 302 186 l 302 0 z "},"Y":{"ha":810,"x_min":46,"x_max":764,"o":"m 529 0 l 281 0 l 281 294 q 116 418 177 337 q 62 528 78 470 q 46 676 46 585 l 46 705 l 46 926 l 294 926 l 294 673 l 294 648 q 324 552 295 585 q 406 518 354 518 q 487 553 458 518 q 517 648 517 589 l 517 673 l 517 926 l 764 926 l 764 705 l 764 676 q 746 515 764 576 q 679 399 728 455 q 614 340 646 362 q 529 294 578 315 l 529 0 z "},"Z":{"ha":741,"x_min":28,"x_max":722,"o":"m 391 213 l 722 213 l 722 0 l 28 0 l 342 713 l 41 713 l 41 926 l 703 926 l 391 213 z "},"[":{"ha":555,"x_min":151,"x_max":458,"o":"m 151 -161 l 151 1087 l 458 1087 l 458 902 l 376 902 l 376 24 l 458 24 l 458 -161 l 151 -161 z "},"\\":{"ha":723,"x_min":0,"x_max":723,"o":"m 224 1019 l 723 -93 l 498 -93 l 0 1019 l 224 1019 z "},"]":{"ha":555,"x_min":97,"x_max":404,"o":"m 97 1087 l 404 1087 l 404 -161 l 97 -161 l 97 24 l 180 24 l 180 902 l 97 902 l 97 1087 z "},"^":{"ha":555,"x_min":46,"x_max":509,"o":"m 56 916 l 56 9 l 500 9 l 500 916 l 56 916 m 509 0 l 46 0 l 46 926 l 509 926 l 509 0 z "},"_":{"ha":694,"x_min":0,"x_max":694,"o":"m 694 -389 l 0 -389 l 0 -185 l 694 -185 l 694 -389 z "},"`":{"ha":523,"x_min":93,"x_max":431,"o":"m 324 937 l 431 756 l 269 756 l 93 937 l 324 937 z "},"a":{"ha":791,"x_min":33,"x_max":727,"o":"m 727 304 l 727 0 l 500 0 l 500 274 l 500 305 q 484 399 500 370 q 441 442 468 427 q 380 458 413 458 q 294 422 330 458 q 258 333 258 385 q 294 247 258 281 q 384 212 330 212 q 458 227 416 212 l 458 -5 q 386 -14 419 -14 q 208 32 290 -14 q 79 157 125 78 q 33 332 33 237 q 79 509 33 427 q 205 636 125 589 q 378 683 283 683 q 554 637 474 683 q 681 512 633 592 q 727 339 727 432 l 727 304 z "},"b":{"ha":791,"x_min":65,"x_max":759,"o":"m 65 366 l 65 926 l 292 926 l 292 395 l 292 364 q 308 271 292 302 q 351 227 323 242 q 411 212 378 212 q 473 229 446 212 q 517 274 502 245 q 534 336 534 302 q 517 398 534 370 q 472 442 500 427 q 408 458 442 458 q 333 442 376 458 l 333 675 q 406 684 372 684 q 584 638 502 684 q 712 513 665 593 q 759 337 759 433 q 713 161 759 242 q 587 33 666 80 q 413 -14 508 -14 q 238 32 318 -14 q 112 157 157 78 q 65 330 65 237 l 65 366 z "},"c":{"ha":587,"x_min":33,"x_max":577,"o":"m 466 248 l 576 49 q 375 -14 488 -14 q 203 33 282 -14 q 79 160 125 80 q 33 334 33 241 q 79 510 33 430 q 205 637 125 590 q 381 683 286 683 q 577 621 487 683 l 466 421 q 425 448 444 440 q 380 456 406 456 q 318 440 347 456 q 273 396 289 424 q 257 334 257 368 q 274 273 257 300 q 319 228 290 244 q 380 212 347 212 q 425 220 406 212 q 466 248 447 230 z "},"d":{"ha":791,"x_min":33,"x_max":727,"o":"m 500 926 l 727 926 l 727 366 l 727 330 q 709 214 726 264 q 652 117 690 163 q 531 20 602 54 q 378 -14 459 -14 q 205 33 283 -14 q 79 161 125 80 q 33 337 33 242 q 79 513 33 433 q 208 638 127 593 q 386 684 289 684 q 458 675 419 684 l 458 442 q 384 458 415 458 q 294 423 330 458 q 258 336 258 388 q 274 274 258 302 q 319 229 290 245 q 380 212 346 212 q 441 228 413 212 q 484 271 469 243 q 500 364 500 301 l 500 395 l 500 926 z "},"e":{"ha":689,"x_min":33,"x_max":680,"o":"m 432 450 q 379 463 406 463 q 319 446 347 463 q 275 401 290 429 q 258 339 258 372 q 274 278 258 310 l 397 213 q 427 209 413 209 q 586 266 500 209 l 641 44 q 416 -14 536 -14 q 220 32 307 -14 q 142 87 176 56 q 83 159 108 119 q 33 337 33 239 q 79 511 33 432 q 206 637 125 590 q 382 684 287 684 q 552 641 474 684 q 623 589 591 620 q 680 518 654 559 l 417 234 l 292 297 l 432 450 z "},"f":{"ha":449,"x_min":69,"x_max":439,"o":"m 296 0 l 69 0 l 69 553 q 83 705 69 646 q 130 812 98 765 q 196 880 154 850 q 287 924 236 909 q 391 940 338 940 q 439 935 412 940 l 439 750 q 340 732 374 750 q 296 672 305 713 l 439 672 l 439 459 l 296 459 l 296 0 z "},"g":{"ha":772,"x_min":33,"x_max":713,"o":"m 192 -253 l 192 -53 q 250 -70 223 -64 q 307 -75 273 -75 q 414 -50 371 -75 q 475 21 457 -26 q 488 132 488 56 l 488 304 q 472 397 488 368 q 433 440 458 425 q 376 455 408 455 q 294 422 328 455 q 261 342 261 389 q 296 260 261 293 q 380 227 329 227 q 444 240 410 227 l 444 39 q 343 25 389 25 q 184 66 255 25 q 73 179 113 108 q 33 340 33 252 q 79 512 33 433 q 203 637 125 591 q 374 683 282 683 q 489 663 432 683 q 591 605 543 644 q 667 518 637 568 q 703 432 692 476 q 713 315 713 387 l 713 120 q 700 -16 713 36 q 655 -118 687 -71 q 575 -203 623 -168 q 469 -252 530 -236 q 334 -269 410 -269 q 269 -265 304 -269 q 192 -253 235 -262 z "},"h":{"ha":745,"x_min":69,"x_max":680,"o":"m 296 0 l 69 0 l 69 926 l 296 926 l 296 639 q 456 683 365 683 q 547 665 505 683 q 618 614 589 647 q 664 537 648 581 q 680 437 680 492 l 680 416 l 680 0 l 454 0 l 454 343 l 454 365 q 433 434 454 410 q 374 458 412 458 q 317 435 337 458 q 296 368 296 410 l 296 341 l 296 0 z "},"i":{"ha":366,"x_min":61,"x_max":304,"o":"m 61 812 q 77 876 61 847 q 121 922 93 904 q 182 939 149 939 q 244 922 216 939 q 289 877 273 905 q 304 815 304 848 q 288 755 304 783 q 243 711 271 726 q 183 694 215 694 q 123 711 151 694 q 78 754 94 727 q 61 812 61 781 m 296 0 l 69 0 l 69 672 l 296 672 l 296 0 z "},"j":{"ha":366,"x_min":-79,"x_max":304,"o":"m 61 812 q 77 876 61 847 q 121 922 93 904 q 182 939 149 939 q 244 922 216 939 q 289 877 273 905 q 304 815 304 848 q 288 755 304 783 q 243 711 271 726 q 183 694 215 694 q 123 711 151 694 q 78 754 94 727 q 61 812 61 781 m -79 -261 l -79 -92 q -35 -97 -54 -97 q 56 -47 31 -97 q 67 -13 65 -31 q 69 47 69 5 l 69 83 l 69 100 l 69 672 l 296 672 l 296 102 l 296 76 q 286 -63 296 -16 q 245 -157 275 -111 q 187 -218 222 -192 q 112 -256 153 -243 q 20 -269 71 -269 q -79 -261 -19 -269 z "},"k":{"ha":727,"x_min":69,"x_max":680,"o":"m 296 0 l 69 0 l 69 926 l 296 926 l 296 514 q 439 672 438 518 l 667 672 q 631 542 664 597 q 531 446 598 488 q 617 372 583 412 q 665 278 650 331 q 680 155 680 225 l 680 125 l 680 0 l 454 0 l 454 96 l 454 123 l 454 152 q 420 268 454 222 q 368 315 396 300 q 296 330 338 330 l 296 0 z "},"l":{"ha":366,"x_min":69,"x_max":296,"o":"m 296 0 l 69 0 l 69 926 l 296 926 l 296 0 z "},"m":{"ha":1124,"x_min":65,"x_max":1060,"o":"m 292 0 l 65 0 l 65 307 l 65 336 q 79 467 65 415 q 125 563 92 517 q 233 651 167 618 q 369 683 300 683 q 463 668 420 683 q 555 619 505 653 q 652 669 610 655 q 748 684 694 684 q 890 651 823 684 q 998 562 956 619 q 1034 499 1021 530 q 1054 427 1046 467 q 1060 336 1060 386 l 1060 307 l 1060 0 l 833 0 l 833 331 l 833 359 q 755 460 833 460 q 675 354 675 460 l 675 331 l 675 0 l 449 0 l 449 331 l 449 354 q 429 433 449 406 q 369 460 410 460 q 311 435 330 460 q 292 354 292 410 l 292 331 l 292 0 z "},"n":{"ha":741,"x_min":65,"x_max":675,"o":"m 292 334 l 292 0 l 65 0 l 65 310 l 65 334 q 75 455 65 408 q 112 545 85 501 q 221 647 154 612 q 369 683 289 683 q 536 637 462 683 q 646 511 611 590 q 669 439 663 476 q 675 334 675 402 l 675 310 l 675 0 l 449 0 l 449 334 l 449 357 q 370 460 448 460 q 292 357 292 460 l 292 334 z "},"o":{"ha":762,"x_min":33,"x_max":730,"o":"m 392 213 q 442 229 418 215 q 488 273 470 245 q 504 334 504 301 q 488 396 504 368 q 443 441 471 424 q 392 456 419 454 l 392 683 q 517 656 459 681 q 628 582 582 629 q 703 471 675 534 q 730 334 730 408 q 703 199 730 262 q 628 89 675 136 q 516 14 581 42 q 392 -14 456 -12 l 392 213 m 336 448 q 320 441 328 446 q 275 396 292 424 q 258 334 258 368 q 275 273 258 300 q 320 229 292 245 q 336 221 328 224 l 336 -11 q 206 33 267 -2 q 79 160 126 80 q 33 334 33 239 q 60 469 33 406 q 135 581 87 534 q 247 656 183 629 q 336 680 290 674 l 336 448 z "},"p":{"ha":791,"x_min":65,"x_max":759,"o":"m 292 -254 l 65 -254 l 65 267 l 65 311 q 73 407 65 364 q 97 485 80 448 q 140 553 112 519 q 195 609 165 586 q 261 650 228 633 q 334 675 293 665 q 413 683 372 683 q 588 637 507 683 q 713 511 668 591 q 759 335 759 431 q 733 198 759 262 q 657 87 706 134 q 543 12 607 37 q 403 -14 478 -14 q 333 -5 369 -14 l 333 227 q 406 212 374 212 q 499 245 463 212 q 534 333 534 279 q 519 398 534 370 q 477 442 503 426 q 414 458 449 458 q 352 441 380 458 q 309 399 323 425 q 296 359 298 378 q 292 304 292 338 l 292 274 l 292 -254 z "},"q":{"ha":791,"x_min":33,"x_max":727,"o":"m 727 267 l 727 -254 l 500 -254 l 500 274 l 500 304 q 482 399 500 367 q 439 442 467 426 q 377 458 412 458 q 292 423 326 458 q 258 333 258 387 q 293 245 258 279 q 386 212 329 212 q 458 227 419 212 l 458 -5 q 389 -14 422 -14 q 248 12 313 -14 q 134 87 184 39 q 59 198 85 134 q 33 335 33 261 q 79 511 33 430 q 204 637 125 591 q 378 683 284 683 q 460 674 422 683 q 531 650 498 665 q 595 610 564 635 q 652 553 628 583 q 709 447 692 503 q 727 311 727 388 l 727 267 z "},"r":{"ha":412,"x_min":65,"x_max":403,"o":"m 292 0 l 65 0 l 65 313 l 65 346 q 76 452 65 404 q 110 540 87 504 q 169 610 134 579 q 372 684 253 684 q 403 682 382 684 l 403 452 q 368 458 382 458 q 300 410 318 458 q 292 332 292 390 l 292 315 l 292 0 z "},"s":{"ha":505,"x_min":28,"x_max":481,"o":"m 28 -14 l 28 218 q 111 241 87 218 q 138 321 134 264 l 143 394 q 176 528 149 475 q 256 622 201 581 q 447 684 340 684 q 481 682 458 684 l 481 450 q 461 451 477 451 q 393 425 414 451 q 369 337 372 401 l 365 261 q 339 151 361 200 q 274 62 316 100 q 178 5 233 25 q 60 -14 122 -14 q 28 -14 38 -14 z "},"t":{"ha":454,"x_min":65,"x_max":416,"o":"m 292 672 l 416 672 l 416 446 l 292 446 l 292 338 l 292 307 q 313 233 292 256 q 382 210 334 210 q 416 213 386 210 l 416 -11 q 372 -14 388 -14 q 277 0 321 -14 q 193 41 231 14 q 126 105 155 66 q 89 171 102 138 q 71 245 76 202 q 65 357 65 291 l 65 377 l 65 870 l 292 870 l 292 672 z "},"u":{"ha":741,"x_min":65,"x_max":675,"o":"m 449 335 l 449 672 l 675 672 l 675 359 l 675 336 q 665 212 675 258 q 629 124 654 165 q 562 50 602 81 q 475 3 523 20 q 372 -14 427 -14 q 206 33 281 -14 q 94 159 131 79 q 71 234 76 202 q 65 336 65 268 l 65 359 l 65 672 l 292 672 l 292 335 l 292 313 q 370 209 293 209 q 449 313 449 209 l 449 335 z "},"v":{"ha":695,"x_min":46,"x_max":649,"o":"m 46 641 l 46 672 l 273 672 l 273 649 l 273 587 q 277 464 273 519 q 290 367 281 407 q 312 292 299 324 q 348 222 326 258 q 406 368 390 287 q 422 588 422 449 l 422 649 l 422 672 l 649 672 l 649 641 q 644 457 649 543 q 627 320 639 380 q 591 205 614 260 q 539 102 570 151 q 459 0 509 54 l 236 0 q 142 124 178 65 q 85 256 107 183 q 55 421 64 330 q 46 641 46 509 z "},"w":{"ha":1124,"x_min":65,"x_max":1060,"o":"m 833 672 l 1060 672 l 1060 362 l 1060 334 q 1046 201 1060 253 q 999 106 1032 150 q 892 19 957 51 q 756 -14 826 -14 q 664 1 705 -14 q 570 50 622 16 q 473 0 517 15 q 377 -14 431 -14 q 279 1 324 -14 q 194 42 231 16 q 126 107 156 68 q 80 205 94 151 q 65 334 65 258 l 65 362 l 65 672 l 292 672 l 292 338 l 292 310 q 370 210 292 210 q 449 315 449 210 l 449 338 l 449 672 l 675 672 l 675 338 l 675 315 q 755 210 677 210 q 814 235 795 210 q 833 315 833 260 l 833 338 l 833 672 z "},"x":{"ha":722,"x_min":56,"x_max":667,"o":"m 56 642 l 56 672 l 282 672 l 282 601 l 282 573 q 303 498 283 523 q 361 473 323 473 q 439 573 439 473 l 439 601 l 439 672 l 667 672 l 667 640 q 659 522 667 570 q 631 441 651 477 q 568 361 608 404 q 629 283 610 317 q 658 207 648 250 q 667 107 667 167 l 667 81 l 667 0 l 439 0 l 439 122 l 439 150 q 418 224 439 196 q 361 250 397 250 q 304 222 326 250 q 282 150 282 194 l 282 122 l 282 0 l 56 0 l 56 81 l 56 107 q 64 208 56 168 q 94 283 74 251 q 154 361 113 318 q 92 441 113 404 q 64 523 71 476 q 56 642 56 569 z "},"y":{"ha":745,"x_min":65,"x_max":675,"o":"m 65 301 l 65 672 l 292 672 l 292 371 l 292 347 q 311 272 292 296 q 370 248 331 248 q 431 272 412 248 q 449 353 449 296 l 449 374 l 449 672 l 675 672 l 675 150 l 675 102 q 656 -40 675 17 q 591 -150 637 -98 q 513 -217 556 -191 q 416 -256 470 -243 q 296 -269 363 -269 q 148 -252 222 -269 l 148 -50 q 271 -75 213 -75 q 387 -41 345 -75 q 449 65 430 -6 q 363 31 398 41 q 292 22 330 22 q 125 90 184 22 q 65 282 65 157 l 65 301 z "},"z":{"ha":657,"x_min":18,"x_max":621,"o":"m 370 213 l 621 213 l 621 0 l 18 0 l 269 459 l 37 459 l 37 672 l 621 672 l 370 213 z "},"{":{"ha":555,"x_min":46,"x_max":509,"o":"m 56 916 l 56 9 l 500 9 l 500 916 l 56 916 m 509 0 l 46 0 l 46 926 l 509 926 l 509 0 z "},"|":{"ha":555,"x_min":46,"x_max":509,"o":"m 56 916 l 56 9 l 500 9 l 500 916 l 56 916 m 509 0 l 46 0 l 46 926 l 509 926 l 509 0 z "},"}":{"ha":555,"x_min":46,"x_max":509,"o":"m 56 916 l 56 9 l 500 9 l 500 916 l 56 916 m 509 0 l 46 0 l 46 926 l 509 926 l 509 0 z "},"~":{"ha":555,"x_min":46,"x_max":509,"o":"m 56 916 l 56 9 l 500 9 l 500 916 l 56 916 m 509 0 l 46 0 l 46 926 l 509 926 l 509 0 z "},"Ä":{"ha":857,"x_min":69,"x_max":787,"o":"m 353 463 l 540 463 l 540 553 q 526 642 540 612 q 487 684 513 667 q 429 700 460 700 q 368 682 395 700 q 328 633 340 663 q 317 553 317 609 l 317 463 l 317 463 l 318 253 l 317 253 l 317 0 l 69 0 l 69 552 q 78 658 69 614 q 104 743 86 703 q 151 816 123 783 q 274 911 201 877 q 429 944 345 944 q 578 913 509 944 q 700 823 648 882 q 767 707 746 769 q 787 552 787 645 l 787 0 l 540 0 l 540 253 l 353 253 l 353 463 m 483 1107 q 510 1173 483 1146 q 575 1200 537 1200 q 641 1173 614 1200 q 668 1107 668 1146 q 641 1042 668 1069 q 575 1015 614 1015 q 510 1042 537 1015 q 483 1107 483 1069 m 189 1107 q 216 1173 189 1146 q 281 1200 243 1200 q 347 1173 320 1200 q 374 1107 374 1146 q 347 1042 374 1069 q 281 1015 320 1015 q 216 1042 243 1015 q 189 1107 189 1069 z "},"Å":{"ha":857,"x_min":69,"x_max":787,"o":"m 353 463 l 540 463 l 540 553 q 526 642 540 612 q 487 684 513 667 q 429 700 460 700 q 368 682 395 700 q 328 633 340 663 q 317 553 317 609 l 317 463 l 317 463 l 318 253 l 317 253 l 317 0 l 69 0 l 69 552 q 78 658 69 614 q 104 743 86 703 q 151 816 123 783 q 274 911 201 877 q 429 944 345 944 q 578 913 509 944 q 700 823 648 882 q 767 707 746 769 q 787 552 787 645 l 787 0 l 540 0 l 540 253 l 353 253 l 353 463 m 391 1107 q 402 1081 391 1092 q 428 1070 413 1070 q 454 1081 444 1070 q 465 1107 465 1092 q 454 1134 465 1124 q 428 1144 444 1144 q 402 1134 414 1144 q 391 1107 391 1124 m 318 1107 q 351 1184 318 1153 q 428 1215 382 1215 q 507 1184 475 1215 q 538 1107 538 1152 q 506 1031 538 1063 q 428 1000 474 1000 q 351 1031 384 1000 q 318 1107 318 1063 z "},"Ç":{"ha":671,"x_min":37,"x_max":634,"o":"m 528 -20 l 524 -20 l 524 -69 q 619 -171 619 -79 q 585 -258 619 -223 q 498 -292 550 -292 q 404 -259 450 -292 l 448 -202 q 491 -217 473 -217 q 521 -206 509 -217 q 532 -178 532 -196 q 520 -148 532 -160 q 489 -136 507 -136 q 448 -147 474 -136 l 448 -14 l 444 -14 q 281 43 355 2 q 151 150 206 85 q 67 296 97 213 q 37 464 37 377 q 102 705 37 594 q 277 880 167 816 q 517 944 388 944 q 634 929 574 944 l 634 679 q 524 698 573 698 q 402 667 456 698 q 315 581 347 635 q 283 462 283 527 q 315 342 283 396 q 404 257 347 288 q 526 226 459 226 q 575 230 553 226 q 634 246 597 234 l 634 -5 q 529 -20 578 -18 l 528 -20 z "},"É":{"ha":702,"x_min":41,"x_max":634,"o":"m 443 209 l 633 209 l 633 0 l 340 0 l 302 0 q 106 83 179 3 q 58 163 75 119 q 41 251 41 206 q 154 463 41 375 q 57 665 57 546 q 73 754 57 709 q 117 833 87 797 q 184 890 147 869 q 340 926 246 926 l 357 926 l 633 926 l 633 717 l 443 717 l 406 717 q 346 695 368 715 q 323 643 323 675 q 349 589 323 610 q 410 566 373 566 l 441 566 l 633 566 l 633 359 l 441 359 l 421 359 q 358 338 381 358 q 334 284 334 317 q 358 231 334 252 q 417 209 382 209 l 443 209 m 458 1017 l 296 1017 l 402 1198 l 634 1198 l 458 1017 z "},"Ñ":{"ha":857,"x_min":69,"x_max":787,"o":"m 317 553 l 317 0 l 69 0 l 69 518 l 69 552 q 93 716 70 651 q 170 836 114 779 q 428 944 273 944 q 578 913 509 944 q 700 823 648 882 q 767 707 746 769 q 787 552 787 645 l 787 518 l 787 0 l 540 0 l 540 553 l 540 576 q 512 669 540 637 q 431 700 484 700 q 349 666 380 700 q 317 576 317 631 l 317 553 m 578 1196 l 659 1090 q 588 1038 621 1053 q 509 1023 556 1023 q 469 1026 488 1023 q 398 1044 453 1029 q 352 1052 370 1052 q 277 1019 319 1052 l 197 1124 q 342 1192 258 1192 q 416 1181 381 1192 l 465 1168 q 505 1162 487 1162 q 542 1170 526 1162 q 578 1196 557 1177 z "},"Ö":{"ha":1037,"x_min":37,"x_max":1000,"o":"m 526 228 q 636 260 585 230 q 722 345 691 292 q 753 463 753 399 q 722 581 753 528 q 636 667 691 635 q 526 698 586 696 l 526 944 q 760 880 652 942 q 935 704 871 814 q 1000 463 1000 593 q 935 222 1000 333 q 760 47 871 111 q 526 -18 652 -16 l 526 228 m 478 694 q 401 667 437 688 q 315 581 347 635 q 283 463 283 527 q 315 345 283 399 q 401 260 347 292 q 478 231 437 238 l 478 -17 q 277 46 371 -8 q 102 222 166 111 q 37 463 37 333 q 102 705 37 593 q 277 880 165 815 q 478 943 371 934 l 478 694 m 573 1107 q 600 1173 573 1146 q 665 1200 627 1200 q 731 1173 704 1200 q 758 1107 758 1146 q 731 1042 758 1069 q 665 1015 704 1015 q 600 1042 627 1015 q 573 1107 573 1069 m 279 1107 q 307 1173 279 1146 q 372 1200 334 1200 q 437 1173 410 1200 q 465 1107 465 1146 q 437 1042 465 1069 q 372 1015 410 1015 q 307 1042 334 1015 q 279 1107 279 1069 z "},"Ü":{"ha":857,"x_min":69,"x_max":787,"o":"m 69 408 l 69 926 l 317 926 l 317 373 q 331 284 317 312 q 372 242 345 257 q 429 226 398 226 q 509 260 478 226 q 540 349 540 295 l 540 373 l 540 926 l 787 926 l 787 408 l 787 374 q 764 212 787 278 q 688 90 741 145 q 570 9 637 37 q 429 -18 503 -18 q 279 12 349 -18 q 157 103 212 42 q 107 177 126 138 q 78 264 87 216 q 69 374 69 309 l 69 408 m 483 1107 q 510 1173 483 1146 q 575 1200 537 1200 q 641 1173 614 1200 q 668 1107 668 1146 q 641 1042 668 1069 q 575 1015 614 1015 q 510 1042 537 1015 q 483 1107 483 1069 m 189 1107 q 216 1173 189 1146 q 281 1200 243 1200 q 347 1173 320 1200 q 374 1107 374 1146 q 347 1042 374 1069 q 281 1015 320 1015 q 216 1042 243 1015 q 189 1107 189 1069 z "},"á":{"ha":791,"x_min":33,"x_max":727,"o":"m 727 304 l 727 0 l 500 0 l 500 274 l 500 305 q 484 399 500 370 q 441 442 468 427 q 380 458 413 458 q 294 422 330 458 q 258 333 258 385 q 294 247 258 281 q 384 212 330 212 q 458 227 416 212 l 458 -5 q 386 -14 419 -14 q 208 32 290 -14 q 79 157 125 78 q 33 332 33 237 q 79 509 33 427 q 205 636 125 589 q 378 683 283 683 q 554 637 474 683 q 681 512 633 592 q 727 339 727 432 l 727 304 m 449 756 l 288 756 l 393 937 l 625 937 l 449 756 z "},"à":{"ha":791,"x_min":33,"x_max":727,"o":"m 727 304 l 727 0 l 500 0 l 500 274 l 500 305 q 484 399 500 370 q 441 442 468 427 q 380 458 413 458 q 294 422 330 458 q 258 333 258 385 q 294 247 258 281 q 384 212 330 212 q 458 227 416 212 l 458 -5 q 386 -14 419 -14 q 208 32 290 -14 q 79 157 125 78 q 33 332 33 237 q 79 509 33 427 q 205 636 125 589 q 378 683 283 683 q 554 637 474 683 q 681 512 633 592 q 727 339 727 432 l 727 304 m 352 937 l 458 756 l 296 756 l 121 937 l 352 937 z "},"â":{"ha":791,"x_min":33,"x_max":727,"o":"m 727 304 l 727 0 l 500 0 l 500 274 l 500 305 q 484 399 500 370 q 441 442 468 427 q 380 458 413 458 q 294 422 330 458 q 258 333 258 385 q 294 247 258 281 q 384 212 330 212 q 458 227 416 212 l 458 -5 q 386 -14 419 -14 q 208 32 290 -14 q 79 157 125 78 q 33 332 33 237 q 79 509 33 427 q 205 636 125 589 q 378 683 283 683 q 554 637 474 683 q 681 512 633 592 q 727 339 727 432 l 727 304 m 352 756 l 167 756 l 296 937 l 481 937 l 611 756 l 426 756 l 389 829 l 352 756 z "},"ä":{"ha":791,"x_min":33,"x_max":727,"o":"m 727 304 l 727 0 l 500 0 l 500 274 l 500 305 q 484 399 500 370 q 441 442 468 427 q 380 458 413 458 q 294 422 330 458 q 258 333 258 385 q 294 247 258 281 q 384 212 330 212 q 458 227 416 212 l 458 -5 q 386 -14 419 -14 q 208 32 290 -14 q 79 157 125 78 q 33 332 33 237 q 79 509 33 427 q 205 636 125 589 q 378 683 283 683 q 554 637 474 683 q 681 512 633 592 q 727 339 727 432 l 727 304 m 442 846 q 469 912 442 885 q 534 939 496 939 q 600 912 573 939 q 627 846 627 885 q 600 781 627 808 q 534 754 573 754 q 469 781 496 754 q 442 846 442 808 m 149 846 q 176 912 149 885 q 241 939 203 939 q 307 912 279 939 q 334 846 334 885 q 307 781 334 808 q 241 754 279 754 q 176 781 203 754 q 149 846 149 808 z "},"ã":{"ha":791,"x_min":33,"x_max":727,"o":"m 727 304 l 727 0 l 500 0 l 500 274 l 500 305 q 484 399 500 370 q 441 442 468 427 q 380 458 413 458 q 294 422 330 458 q 258 333 258 385 q 294 247 258 281 q 384 212 330 212 q 458 227 416 212 l 458 -5 q 386 -14 419 -14 q 208 32 290 -14 q 79 157 125 78 q 33 332 33 237 q 79 509 33 427 q 205 636 125 589 q 378 683 283 683 q 554 637 474 683 q 681 512 633 592 q 727 339 727 432 l 727 304 m 543 935 l 624 829 q 553 777 585 792 q 473 762 521 762 q 433 765 452 762 q 363 783 418 768 q 317 791 334 791 q 242 758 284 791 l 162 863 q 307 931 222 931 q 381 920 346 931 l 430 907 q 470 901 452 901 q 507 909 490 901 q 543 935 522 916 z "},"å":{"ha":791,"x_min":33,"x_max":727,"o":"m 727 304 l 727 0 l 500 0 l 500 274 l 500 305 q 484 399 500 370 q 441 442 468 427 q 380 458 413 458 q 294 422 330 458 q 258 333 258 385 q 294 247 258 281 q 384 212 330 212 q 458 227 416 212 l 458 -5 q 386 -14 419 -14 q 208 32 290 -14 q 79 157 125 78 q 33 332 33 237 q 79 509 33 427 q 205 636 125 589 q 378 683 283 683 q 554 637 474 683 q 681 512 633 592 q 727 339 727 432 l 727 304 m 342 846 q 353 820 342 831 q 378 809 363 809 q 405 820 394 809 q 416 846 416 831 q 405 873 416 863 q 378 883 394 883 q 353 873 364 883 q 342 846 342 863 m 269 846 q 301 923 269 892 q 378 954 333 954 q 457 923 425 954 q 489 846 489 891 q 456 770 489 802 q 378 739 425 739 q 301 770 334 739 q 269 846 269 802 z "},"ç":{"ha":587,"x_min":32,"x_max":577,"o":"m 276 -259 l 320 -202 q 363 -217 345 -217 q 393 -206 382 -217 q 405 -178 405 -196 q 392 -148 405 -160 q 361 -136 378 -136 q 320 -147 347 -136 l 320 -7 q 173 58 238 9 q 69 181 106 108 q 32 337 32 255 q 79 512 32 433 q 206 637 125 591 q 382 684 287 684 q 485 669 437 684 q 577 623 531 654 l 466 423 q 425 451 444 443 q 380 458 405 458 q 318 442 347 458 q 273 398 289 426 q 257 336 257 370 q 274 275 257 302 q 319 230 290 246 q 380 214 347 214 q 425 222 406 214 q 466 250 447 232 l 576 52 q 490 7 533 22 q 396 -12 446 -9 l 396 -69 q 491 -171 491 -79 q 456 -258 491 -223 q 370 -292 422 -292 q 276 -259 322 -292 z "},"é":{"ha":689,"x_min":33,"x_max":680,"o":"m 432 450 q 379 463 406 463 q 319 446 347 463 q 275 401 290 429 q 258 339 258 372 q 274 278 258 310 l 397 213 q 427 209 413 209 q 586 266 500 209 l 641 44 q 416 -14 536 -14 q 220 32 307 -14 q 142 87 176 56 q 83 159 108 119 q 33 337 33 239 q 79 511 33 432 q 206 637 125 590 q 382 684 287 684 q 552 641 474 684 q 623 589 591 620 q 680 518 654 559 l 417 234 l 292 297 l 432 450 m 452 756 l 291 756 l 397 937 l 629 937 l 452 756 z "},"è":{"ha":689,"x_min":33,"x_max":680,"o":"m 432 450 q 379 463 406 463 q 319 446 347 463 q 275 401 290 429 q 258 339 258 372 q 274 278 258 310 l 397 213 q 427 209 413 209 q 586 266 500 209 l 641 44 q 416 -14 536 -14 q 220 32 307 -14 q 142 87 176 56 q 83 159 108 119 q 33 337 33 239 q 79 511 33 432 q 206 637 125 590 q 382 684 287 684 q 552 641 474 684 q 623 589 591 620 q 680 518 654 559 l 417 234 l 292 297 l 432 450 m 348 937 l 454 756 l 292 756 l 117 937 l 348 937 z "},"ê":{"ha":689,"x_min":33,"x_max":680,"o":"m 432 450 q 379 463 406 463 q 319 446 347 463 q 275 401 290 429 q 258 339 258 372 q 274 278 258 310 l 397 213 q 427 209 413 209 q 586 266 500 209 l 641 44 q 416 -14 536 -14 q 220 32 307 -14 q 142 87 176 56 q 83 159 108 119 q 33 337 33 239 q 79 511 33 432 q 206 637 125 590 q 382 684 287 684 q 552 641 474 684 q 623 589 591 620 q 680 518 654 559 l 417 234 l 292 297 l 432 450 m 324 756 l 139 756 l 269 937 l 454 937 l 583 756 l 398 756 l 361 829 l 324 756 z "},"ë":{"ha":689,"x_min":33,"x_max":680,"o":"m 432 450 q 379 463 406 463 q 319 446 347 463 q 275 401 290 429 q 258 339 258 372 q 274 278 258 310 l 397 213 q 427 209 413 209 q 586 266 500 209 l 641 44 q 416 -14 536 -14 q 220 32 307 -14 q 142 87 176 56 q 83 159 108 119 q 33 337 33 239 q 79 511 33 432 q 206 637 125 590 q 382 684 287 684 q 552 641 474 684 q 623 589 591 620 q 680 518 654 559 l 417 234 l 292 297 l 432 450 m 424 846 q 451 912 424 885 q 516 939 478 939 q 582 912 555 939 q 609 846 609 885 q 582 781 609 808 q 516 754 555 754 q 451 781 478 754 q 424 846 424 808 m 130 846 q 157 912 130 885 q 222 939 184 939 q 288 912 261 939 q 315 846 315 885 q 288 781 315 808 q 222 754 261 754 q 157 781 184 754 q 130 846 130 808 z "},"í":{"ha":366,"x_min":69,"x_max":431,"o":"m 296 0 l 69 0 l 69 672 l 296 672 l 296 0 m 254 756 l 93 756 l 199 937 l 431 937 l 254 756 z "},"ì":{"ha":366,"x_min":-64,"x_max":296,"o":"m 296 0 l 69 0 l 69 672 l 296 672 l 296 0 m 167 937 l 273 756 l 111 756 l -64 937 l 167 937 z "},"î":{"ha":366,"x_min":-39,"x_max":405,"o":"m 296 0 l 69 0 l 69 672 l 296 672 l 296 0 m 146 756 l -39 756 l 90 937 l 275 937 l 405 756 l 220 756 l 182 829 l 146 756 z "},"ï":{"ha":366,"x_min":-56,"x_max":422,"o":"m 296 0 l 69 0 l 69 672 l 296 672 l 296 0 m 237 846 q 264 912 237 885 q 330 939 292 939 q 395 912 368 939 q 422 846 422 885 q 395 781 422 808 q 330 754 368 754 q 264 781 292 754 q 237 846 237 808 m -56 846 q -29 912 -56 885 q 36 939 -2 939 q 102 912 75 939 q 129 846 129 885 q 102 781 129 808 q 36 754 75 754 q -29 781 -2 754 q -56 846 -56 808 z "},"ñ":{"ha":741,"x_min":65,"x_max":675,"o":"m 292 334 l 292 0 l 65 0 l 65 310 l 65 334 q 75 455 65 408 q 112 545 85 501 q 221 647 154 612 q 369 683 289 683 q 536 637 462 683 q 646 511 611 590 q 669 439 663 476 q 675 334 675 402 l 675 310 l 675 0 l 449 0 l 449 334 l 449 357 q 370 460 448 460 q 292 357 292 460 l 292 334 m 515 935 l 595 829 q 524 777 557 792 q 445 762 492 762 q 405 765 424 762 q 334 783 389 768 q 288 791 306 791 q 214 758 256 791 l 134 863 q 279 931 194 931 q 353 920 317 931 l 401 907 q 441 901 423 901 q 478 909 462 901 q 515 935 494 916 z "},"ó":{"ha":762,"x_min":33,"x_max":730,"o":"m 392 213 q 442 229 418 215 q 488 273 470 245 q 504 334 504 301 q 488 396 504 368 q 443 441 471 424 q 392 456 419 454 l 392 683 q 517 656 459 681 q 628 582 582 629 q 703 471 675 534 q 730 334 730 408 q 703 199 730 262 q 628 89 675 136 q 516 14 581 42 q 392 -14 456 -12 l 392 213 m 336 448 q 320 441 328 446 q 275 396 292 424 q 258 334 258 368 q 275 273 258 300 q 320 229 292 245 q 336 221 328 224 l 336 -11 q 206 33 267 -2 q 79 160 126 80 q 33 334 33 239 q 60 469 33 406 q 135 581 87 534 q 247 656 183 629 q 336 680 290 674 l 336 448 m 460 756 l 298 756 l 404 937 l 636 937 l 460 756 z "},"ò":{"ha":762,"x_min":33,"x_max":730,"o":"m 392 213 q 442 229 418 215 q 488 273 470 245 q 504 334 504 301 q 488 396 504 368 q 443 441 471 424 q 392 456 419 454 l 392 683 q 517 656 459 681 q 628 582 582 629 q 703 471 675 534 q 730 334 730 408 q 703 199 730 262 q 628 89 675 136 q 516 14 581 42 q 392 -14 456 -12 l 392 213 m 336 448 q 320 441 328 446 q 275 396 292 424 q 258 334 258 368 q 275 273 258 300 q 320 229 292 245 q 336 221 328 224 l 336 -11 q 206 33 267 -2 q 79 160 126 80 q 33 334 33 239 q 60 469 33 406 q 135 581 87 534 q 247 656 183 629 q 336 680 290 674 l 336 448 m 342 937 l 449 756 l 287 756 l 111 937 l 342 937 z "},"ô":{"ha":762,"x_min":33,"x_max":730,"o":"m 392 213 q 442 229 418 215 q 488 273 470 245 q 504 334 504 301 q 488 396 504 368 q 443 441 471 424 q 392 456 419 454 l 392 683 q 517 656 459 681 q 628 582 582 629 q 703 471 675 534 q 730 334 730 408 q 703 199 730 262 q 628 89 675 136 q 516 14 581 42 q 392 -14 456 -12 l 392 213 m 336 448 q 320 441 328 446 q 275 396 292 424 q 258 334 258 368 q 275 273 258 300 q 320 229 292 245 q 336 221 328 224 l 336 -11 q 206 33 267 -2 q 79 160 126 80 q 33 334 33 239 q 60 469 33 406 q 135 581 87 534 q 247 656 183 629 q 336 680 290 674 l 336 448 m 345 756 l 159 756 l 289 937 l 474 937 l 604 756 l 418 756 l 381 829 l 345 756 z "},"ö":{"ha":762,"x_min":33,"x_max":730,"o":"m 392 213 q 442 229 418 215 q 488 273 470 245 q 504 334 504 301 q 488 396 504 368 q 443 441 471 424 q 392 456 419 454 l 392 683 q 517 656 459 681 q 628 582 582 629 q 703 471 675 534 q 730 334 730 408 q 703 199 730 262 q 628 89 675 136 q 516 14 581 42 q 392 -14 456 -12 l 392 213 m 336 448 q 320 441 328 446 q 275 396 292 424 q 258 334 258 368 q 275 273 258 300 q 320 229 292 245 q 336 221 328 224 l 336 -11 q 206 33 267 -2 q 79 160 126 80 q 33 334 33 239 q 60 469 33 406 q 135 581 87 534 q 247 656 183 629 q 336 680 290 674 l 336 448 m 435 846 q 463 912 435 885 q 528 939 490 939 q 593 912 566 939 q 621 846 621 885 q 593 781 621 808 q 528 754 566 754 q 463 781 490 754 q 435 846 435 808 m 142 846 q 169 912 142 885 q 234 939 196 939 q 300 912 273 939 q 327 846 327 885 q 300 781 327 808 q 234 754 273 754 q 169 781 196 754 q 142 846 142 808 z "},"õ":{"ha":762,"x_min":33,"x_max":730,"o":"m 392 213 q 442 229 418 215 q 488 273 470 245 q 504 334 504 301 q 488 396 504 368 q 443 441 471 424 q 392 456 419 454 l 392 683 q 517 656 459 681 q 628 582 582 629 q 703 471 675 534 q 730 334 730 408 q 703 199 730 262 q 628 89 675 136 q 516 14 581 42 q 392 -14 456 -12 l 392 213 m 336 448 q 320 441 328 446 q 275 396 292 424 q 258 334 258 368 q 275 273 258 300 q 320 229 292 245 q 336 221 328 224 l 336 -11 q 206 33 267 -2 q 79 160 126 80 q 33 334 33 239 q 60 469 33 406 q 135 581 87 534 q 247 656 183 629 q 336 680 290 674 l 336 448 m 531 935 l 612 829 q 541 777 573 792 q 461 762 509 762 q 421 765 440 762 q 351 783 406 768 q 304 791 322 791 q 230 758 272 791 l 150 863 q 295 931 210 931 q 369 920 334 931 l 418 907 q 458 901 439 901 q 494 909 478 901 q 531 935 510 916 z "},"ú":{"ha":741,"x_min":65,"x_max":675,"o":"m 449 335 l 449 672 l 675 672 l 675 359 l 675 336 q 665 212 675 258 q 629 124 654 165 q 562 50 602 81 q 475 3 523 20 q 372 -14 427 -14 q 206 33 281 -14 q 94 159 131 79 q 71 234 76 202 q 65 336 65 268 l 65 359 l 65 672 l 292 672 l 292 335 l 292 313 q 370 209 293 209 q 449 313 449 209 l 449 335 m 452 756 l 291 756 l 397 937 l 629 937 l 452 756 z "},"ù":{"ha":741,"x_min":65,"x_max":675,"o":"m 449 335 l 449 672 l 675 672 l 675 359 l 675 336 q 665 212 675 258 q 629 124 654 165 q 562 50 602 81 q 475 3 523 20 q 372 -14 427 -14 q 206 33 281 -14 q 94 159 131 79 q 71 234 76 202 q 65 336 65 268 l 65 359 l 65 672 l 292 672 l 292 335 l 292 313 q 370 209 293 209 q 449 313 449 209 l 449 335 m 341 937 l 448 756 l 286 756 l 110 937 l 341 937 z "},"û":{"ha":741,"x_min":65,"x_max":675,"o":"m 449 335 l 449 672 l 675 672 l 675 359 l 675 336 q 665 212 675 258 q 629 124 654 165 q 562 50 602 81 q 475 3 523 20 q 372 -14 427 -14 q 206 33 281 -14 q 94 159 131 79 q 71 234 76 202 q 65 336 65 268 l 65 359 l 65 672 l 292 672 l 292 335 l 292 313 q 370 209 293 209 q 449 313 449 209 l 449 335 m 328 756 l 143 756 l 273 937 l 458 937 l 587 756 l 402 756 l 365 829 l 328 756 z "},"ü":{"ha":741,"x_min":65,"x_max":675,"o":"m 449 335 l 449 672 l 675 672 l 675 359 l 675 336 q 665 212 675 258 q 629 124 654 165 q 562 50 602 81 q 475 3 523 20 q 372 -14 427 -14 q 206 33 281 -14 q 94 159 131 79 q 71 234 76 202 q 65 336 65 268 l 65 359 l 65 672 l 292 672 l 292 335 l 292 313 q 370 209 293 209 q 449 313 449 209 l 449 335 m 423 846 q 450 912 423 885 q 515 939 477 939 q 581 912 554 939 q 608 846 608 885 q 581 781 608 808 q 515 754 554 754 q 450 781 477 754 q 423 846 423 808 m 130 846 q 157 912 130 885 q 222 939 184 939 q 288 912 260 939 q 315 846 315 885 q 288 781 315 808 q 222 754 260 754 q 157 781 184 754 q 130 846 130 808 z "},"†":{"ha":555,"x_min":46,"x_max":509,"o":"m 56 916 l 56 9 l 500 9 l 500 916 l 56 916 m 509 0 l 46 0 l 46 926 l 509 926 l 509 0 z "},"°":{"ha":555,"x_min":46,"x_max":509,"o":"m 56 916 l 56 9 l 500 9 l 500 916 l 56 916 m 509 0 l 46 0 l 46 926 l 509 926 l 509 0 z "},"¢":{"ha":619,"x_min":46,"x_max":591,"o":"m 459 140 l 459 73 l 304 73 l 304 145 q 169 218 229 168 q 78 336 109 268 q 46 482 46 405 q 79 629 46 560 q 172 749 112 699 q 304 818 231 799 l 304 889 l 459 889 l 459 824 l 463 823 q 530 803 498 816 q 591 768 559 789 l 480 568 q 439 596 458 588 q 394 604 419 604 q 332 587 361 604 q 288 543 303 571 q 271 481 271 515 q 288 420 271 448 q 333 375 304 391 q 395 359 361 359 q 439 367 420 359 q 480 395 458 375 l 590 197 q 529 161 559 174 q 459 140 501 149 z "},"£":{"ha":790,"x_min":83,"x_max":777,"o":"m 357 227 l 748 227 l 748 0 l 83 0 l 139 352 l 88 352 l 88 560 l 172 560 l 185 642 q 261 829 205 762 q 373 913 304 883 q 517 944 441 944 q 777 831 665 944 l 605 667 q 519 708 564 708 q 448 677 471 708 q 410 560 425 645 l 629 560 l 629 352 l 376 352 l 357 227 z "},"§":{"ha":555,"x_min":46,"x_max":509,"o":"m 56 916 l 56 9 l 500 9 l 500 916 l 56 916 m 509 0 l 46 0 l 46 926 l 509 926 l 509 0 z "},"•":{"ha":519,"x_min":46,"x_max":473,"o":"m 46 472 q 75 579 46 530 q 153 657 104 628 q 260 686 202 686 q 367 657 317 686 q 445 579 416 628 q 473 472 473 530 q 445 366 473 414 q 367 288 416 316 q 260 258 317 258 q 153 288 201 258 q 75 366 104 316 q 46 472 46 414 z "},"¶":{"ha":555,"x_min":46,"x_max":509,"o":"m 56 916 l 56 9 l 500 9 l 500 916 l 56 916 m 509 0 l 46 0 l 46 926 l 509 926 l 509 0 z "},"ß":{"ha":794,"x_min":65,"x_max":762,"o":"m 292 536 l 292 0 l 65 0 l 65 531 l 65 561 q 81 715 65 656 q 136 825 96 774 q 204 887 165 863 q 292 926 245 913 q 393 939 340 939 q 515 920 460 939 q 610 866 572 901 q 673 782 651 829 q 695 677 695 732 q 677 581 695 623 q 614 494 657 538 q 726 403 691 458 q 762 262 762 347 q 698 82 762 157 q 633 27 667 47 q 555 -3 598 7 q 456 -14 511 -14 q 333 0 395 -14 l 333 222 q 414 203 376 203 q 498 232 467 203 q 530 307 530 259 q 486 389 530 364 q 347 415 442 415 l 333 415 l 333 549 l 358 549 q 475 630 475 549 q 450 690 475 667 q 385 713 425 713 q 335 701 355 713 q 302 663 313 688 q 292 565 292 641 l 292 536 z "},"®":{"ha":555,"x_min":46,"x_max":509,"o":"m 56 916 l 56 9 l 500 9 l 500 916 l 56 916 m 509 0 l 46 0 l 46 926 l 509 926 l 509 0 z "},"©":{"ha":555,"x_min":46,"x_max":509,"o":"m 56 916 l 56 9 l 500 9 l 500 916 l 56 916 m 509 0 l 46 0 l 46 926 l 509 926 l 509 0 z "},"™":{"ha":555,"x_min":46,"x_max":509,"o":"m 56 916 l 56 9 l 500 9 l 500 916 l 56 916 m 509 0 l 46 0 l 46 926 l 509 926 l 509 0 z "},"´":{"ha":523,"x_min":93,"x_max":431,"o":"m 254 756 l 93 756 l 199 937 l 431 937 l 254 756 z "},"¨":{"ha":664,"x_min":93,"x_max":572,"o":"m 387 846 q 414 912 387 885 q 479 939 441 939 q 545 912 517 939 q 572 846 572 885 q 545 781 572 808 q 479 754 517 754 q 414 781 441 754 q 387 846 387 808 m 93 846 q 120 912 93 885 q 185 939 147 939 q 251 912 224 939 q 278 846 278 885 q 251 781 278 808 q 185 754 224 754 q 120 781 147 754 q 93 846 93 808 z "},"≠":{"ha":555,"x_min":46,"x_max":509,"o":"m 56 916 l 56 9 l 500 9 l 500 916 l 56 916 m 509 0 l 46 0 l 46 926 l 509 926 l 509 0 z "},"Æ":{"ha":1155,"x_min":69,"x_max":1086,"o":"m 317 463 l 540 463 l 540 553 l 540 576 q 526 641 540 612 q 486 685 511 670 q 429 700 461 700 q 348 666 378 700 q 317 576 317 632 l 317 553 l 317 463 m 317 253 l 317 0 l 69 0 l 69 518 l 69 552 q 78 665 70 620 q 108 749 85 704 q 189 854 139 810 q 299 921 235 897 q 429 944 360 944 q 653 867 553 944 q 735 912 690 897 q 840 926 780 926 l 1086 926 l 1086 717 l 896 717 q 819 708 839 717 q 789 683 800 701 q 777 643 777 665 q 789 603 777 623 q 819 576 800 584 q 850 568 837 569 q 894 566 863 566 l 1086 566 l 1086 359 l 894 359 q 787 284 787 359 q 800 244 787 264 q 829 218 812 225 q 896 209 849 209 l 1086 209 l 1086 0 l 850 0 l 812 0 q 621 65 687 2 q 540 253 554 127 l 317 253 z "},"Ø":{"ha":1037,"x_min":37,"x_max":1000,"o":"m 518 698 q 401 667 454 698 q 315 581 347 635 q 283 463 283 526 q 315 345 283 399 q 401 260 347 292 q 518 228 455 228 q 636 260 582 228 q 722 345 691 292 q 753 463 753 399 q 722 581 753 527 q 636 667 690 635 q 518 698 583 698 m 48 146 l 111 208 l 108 212 q 37 463 37 330 q 102 703 37 592 q 277 879 166 812 q 515 944 387 944 q 652 924 582 944 q 776 870 722 905 l 836 930 l 986 781 l 925 720 q 980 597 961 666 q 1000 463 1000 528 q 962 278 1000 365 q 859 123 925 190 q 704 19 792 57 q 518 -18 616 -18 q 262 56 380 -18 l 199 -7 l 48 146 z "},"∞":{"ha":555,"x_min":46,"x_max":509,"o":"m 56 916 l 56 9 l 500 9 l 500 916 l 56 916 m 509 0 l 46 0 l 46 926 l 509 926 l 509 0 z "},"±":{"ha":555,"x_min":46,"x_max":509,"o":"m 56 916 l 56 9 l 500 9 l 500 916 l 56 916 m 509 0 l 46 0 l 46 926 l 509 926 l 509 0 z "},"≤":{"ha":555,"x_min":46,"x_max":509,"o":"m 56 916 l 56 9 l 500 9 l 500 916 l 56 916 m 509 0 l 46 0 l 46 926 l 509 926 l 509 0 z "},"≥":{"ha":555,"x_min":46,"x_max":509,"o":"m 56 916 l 56 9 l 500 9 l 500 916 l 56 916 m 509 0 l 46 0 l 46 926 l 509 926 l 509 0 z "},"¥":{"ha":829,"x_min":56,"x_max":774,"o":"m 538 0 l 291 0 l 291 144 l 194 144 l 194 292 l 291 292 l 291 373 q 126 496 186 416 q 85 567 98 532 q 62 648 70 604 q 56 755 56 690 l 56 783 l 56 926 l 302 926 l 302 752 q 315 663 302 693 q 355 615 328 631 q 414 597 382 597 q 479 618 452 597 q 517 672 507 638 q 526 752 526 699 l 526 926 l 774 926 l 774 783 l 774 755 q 754 593 774 658 q 688 477 735 531 q 538 373 631 412 l 538 292 l 635 292 l 635 144 l 538 144 l 538 0 z "},"µ":{"ha":555,"x_min":46,"x_max":509,"o":"m 56 916 l 56 9 l 500 9 l 500 916 l 56 916 m 509 0 l 46 0 l 46 926 l 509 926 l 509 0 z "},"∂":{"ha":555,"x_min":46,"x_max":509,"o":"m 56 916 l 56 9 l 500 9 l 500 916 l 56 916 m 509 0 l 46 0 l 46 926 l 509 926 l 509 0 z "},"Σ":{"ha":555,"x_min":46,"x_max":509,"o":"m 56 916 l 56 9 l 500 9 l 500 916 l 56 916 m 509 0 l 46 0 l 46 926 l 509 926 l 509 0 z "},"∏":{"ha":555,"x_min":46,"x_max":509,"o":"m 56 916 l 56 9 l 500 9 l 500 916 l 56 916 m 509 0 l 46 0 l 46 926 l 509 926 l 509 0 z "},"π":{"ha":555,"x_min":46,"x_max":509,"o":"m 56 916 l 56 9 l 500 9 l 500 916 l 56 916 m 509 0 l 46 0 l 46 926 l 509 926 l 509 0 z "},"∫":{"ha":555,"x_min":46,"x_max":509,"o":"m 56 916 l 56 9 l 500 9 l 500 916 l 56 916 m 509 0 l 46 0 l 46 926 l 509 926 l 509 0 z "},"ª":{"ha":555,"x_min":46,"x_max":509,"o":"m 56 916 l 56 9 l 500 9 l 500 916 l 56 916 m 509 0 l 46 0 l 46 926 l 509 926 l 509 0 z "},"º":{"ha":555,"x_min":46,"x_max":509,"o":"m 56 916 l 56 9 l 500 9 l 500 916 l 56 916 m 509 0 l 46 0 l 46 926 l 509 926 l 509 0 z "},"Ω":{"ha":555,"x_min":46,"x_max":509,"o":"m 56 916 l 56 9 l 500 9 l 500 916 l 56 916 m 509 0 l 46 0 l 46 926 l 509 926 l 509 0 z "},"æ":{"ha":1154,"x_min":33,"x_max":1145,"o":"m 740 279 l 898 450 q 844 464 869 464 q 785 448 812 464 q 741 402 756 430 q 724 340 724 373 q 740 279 724 309 m 1145 519 l 863 214 q 890 210 877 210 q 967 224 926 210 q 1052 267 1006 237 l 1106 45 q 998 1 1055 17 q 878 -14 941 -14 q 692 29 777 -14 q 557 146 608 71 q 500 314 506 220 l 497 348 q 463 429 494 399 q 382 458 431 458 q 293 424 330 458 q 256 337 256 389 q 294 248 256 283 q 385 213 330 213 q 467 234 423 213 l 467 0 q 378 -14 422 -14 q 201 31 281 -14 q 77 155 122 75 q 33 330 33 233 q 59 467 33 404 q 134 581 85 532 q 245 656 180 629 q 380 683 308 683 q 505 660 444 683 q 610 596 564 637 q 846 683 709 683 q 1017 642 942 683 q 1145 519 1091 600 z "},"ø":{"ha":762,"x_min":30,"x_max":732,"o":"m 381 457 q 320 441 348 457 q 275 396 292 424 q 258 334 258 368 q 275 273 258 300 q 320 229 292 245 q 381 212 349 212 q 442 229 414 212 q 488 273 470 245 q 504 334 504 301 q 488 396 504 368 q 443 441 471 424 q 381 457 414 457 m 212 30 l 174 -9 l 30 132 l 72 174 q 33 336 33 247 q 79 510 33 431 q 205 636 126 589 q 380 683 285 683 q 543 644 467 683 l 591 692 l 732 551 l 686 504 q 730 335 730 421 q 703 200 730 263 q 628 88 676 136 q 517 14 580 40 q 381 -14 454 -14 q 212 30 294 -14 z "},"¿":{"ha":709,"x_min":56,"x_max":662,"o":"m 494 813 q 477 747 494 776 q 429 699 460 716 q 363 682 398 682 q 298 699 330 682 q 250 748 267 717 q 232 813 232 779 q 250 879 232 848 q 297 927 267 909 q 363 944 326 944 q 456 906 418 944 q 494 813 494 868 m 257 620 l 257 629 l 470 629 l 470 614 q 448 478 470 524 q 359 392 425 431 q 288 341 302 357 q 267 283 267 316 q 279 237 267 259 q 313 203 291 216 q 359 191 335 191 q 425 218 397 191 q 451 281 451 243 q 448 310 451 296 l 661 310 q 662 282 662 302 q 621 131 662 200 q 511 22 580 61 q 357 -18 440 -18 q 206 22 275 -18 q 96 132 136 62 q 56 283 56 201 q 210 549 56 448 q 243 574 233 564 q 255 590 252 580 q 257 620 257 600 z "},"¡":{"ha":429,"x_min":83,"x_max":346,"o":"m 83 813 q 101 879 83 848 q 149 927 118 909 q 215 944 178 944 q 308 906 269 944 q 346 813 346 867 q 328 748 346 779 q 280 699 311 717 q 215 682 248 682 q 150 699 181 682 q 101 748 119 717 q 83 813 83 779 m 93 0 l 111 629 l 318 629 l 336 0 l 93 0 z "},"¬":{"ha":555,"x_min":46,"x_max":509,"o":"m 56 916 l 56 9 l 500 9 l 500 916 l 56 916 m 509 0 l 46 0 l 46 926 l 509 926 l 509 0 z "},"√":{"ha":555,"x_min":46,"x_max":509,"o":"m 56 916 l 56 9 l 500 9 l 500 916 l 56 916 m 509 0 l 46 0 l 46 926 l 509 926 l 509 0 z "},"ƒ":{"ha":729,"x_min":0,"x_max":729,"o":"m 245 426 l 180 426 l 214 639 l 279 639 l 291 715 q 313 809 300 772 q 347 878 323 844 q 463 986 391 947 q 618 1023 534 1023 q 729 1007 669 1023 l 673 768 q 618 787 642 787 q 572 770 593 787 q 540 725 551 753 q 518 639 530 700 l 588 639 l 555 426 l 485 426 l 440 140 q 359 -72 419 2 q 248 -159 313 -128 q 107 -190 182 -190 q 0 -170 57 -190 l 56 69 q 111 50 87 50 q 174 83 151 50 q 208 182 197 115 l 210 200 l 245 426 z "},"≈":{"ha":555,"x_min":46,"x_max":509,"o":"m 56 916 l 56 9 l 500 9 l 500 916 l 56 916 m 509 0 l 46 0 l 46 926 l 509 926 l 509 0 z "},"∆":{"ha":555,"x_min":46,"x_max":509,"o":"m 56 916 l 56 9 l 500 9 l 500 916 l 56 916 m 509 0 l 46 0 l 46 926 l 509 926 l 509 0 z "},"«":{"ha":648,"x_min":74,"x_max":574,"o":"m 342 91 l 180 91 l 74 347 l 180 595 l 342 595 l 236 347 l 342 91 m 467 347 l 574 91 l 412 91 l 305 347 l 412 595 l 574 595 l 467 347 z "},"»":{"ha":648,"x_min":74,"x_max":574,"o":"m 574 347 l 467 91 l 305 91 l 412 347 l 305 595 l 467 595 l 574 347 m 342 347 l 236 91 l 74 91 l 180 347 l 74 595 l 236 595 l 342 347 z "},"…":{"ha":1389,"x_min":89,"x_max":1299,"o":"m 1015 124 q 1057 225 1015 183 q 1157 267 1098 267 q 1229 248 1197 267 q 1280 196 1261 229 q 1299 124 1299 164 q 1258 24 1299 65 q 1157 -18 1216 -18 q 1057 24 1099 -18 q 1015 124 1015 66 m 552 124 q 594 225 552 183 q 694 267 635 267 q 766 248 734 267 q 818 196 799 229 q 837 124 837 164 q 795 24 837 65 q 694 -18 753 -18 q 594 24 636 -18 q 552 124 552 66 m 89 124 q 131 225 89 183 q 231 267 172 267 q 303 248 271 267 q 355 196 336 229 q 374 124 374 164 q 332 24 374 65 q 231 -18 290 -18 q 131 24 173 -18 q 89 124 89 66 z "}," ":{"ha":296,"x_min":0,"x_max":0,"o":""},"À":{"ha":857,"x_min":69,"x_max":787,"o":"m 353 463 l 540 463 l 540 553 q 526 642 540 612 q 487 684 513 667 q 429 700 460 700 q 368 682 395 700 q 328 633 340 663 q 317 553 317 609 l 317 463 l 317 463 l 318 253 l 317 253 l 317 0 l 69 0 l 69 552 q 78 658 69 614 q 104 743 86 703 q 151 816 123 783 q 274 911 201 877 q 429 944 345 944 q 578 913 509 944 q 700 823 648 882 q 767 707 746 769 q 787 552 787 645 l 787 0 l 540 0 l 540 253 l 353 253 l 353 463 m 398 1200 l 505 1019 l 342 1019 l 167 1200 l 398 1200 z "},"Ã":{"ha":857,"x_min":69,"x_max":787,"o":"m 353 463 l 540 463 l 540 553 q 526 642 540 612 q 487 684 513 667 q 429 700 460 700 q 368 682 395 700 q 328 633 340 663 q 317 553 317 609 l 317 463 l 317 463 l 318 253 l 317 253 l 317 0 l 69 0 l 69 552 q 78 658 69 614 q 104 743 86 703 q 151 816 123 783 q 274 911 201 877 q 429 944 345 944 q 578 913 509 944 q 700 823 648 882 q 767 707 746 769 q 787 552 787 645 l 787 0 l 540 0 l 540 253 l 353 253 l 353 463 m 578 1196 l 659 1090 q 588 1038 621 1053 q 509 1023 556 1023 q 469 1026 488 1023 q 398 1044 453 1029 q 352 1052 370 1052 q 277 1019 319 1052 l 197 1124 q 342 1192 258 1192 q 416 1181 381 1192 l 465 1168 q 505 1162 487 1162 q 542 1170 526 1162 q 578 1196 557 1177 z "},"Õ":{"ha":1037,"x_min":37,"x_max":1000,"o":"m 526 228 q 636 260 585 230 q 722 345 691 292 q 753 463 753 399 q 722 581 753 528 q 636 667 691 635 q 526 698 586 696 l 526 944 q 760 880 652 942 q 935 704 871 814 q 1000 463 1000 593 q 935 222 1000 333 q 760 47 871 111 q 526 -18 652 -16 l 526 228 m 478 694 q 401 667 437 688 q 315 581 347 635 q 283 463 283 527 q 315 345 283 399 q 401 260 347 292 q 478 231 437 238 l 478 -17 q 277 46 371 -8 q 102 222 166 111 q 37 463 37 333 q 102 705 37 593 q 277 880 165 815 q 478 943 371 934 l 478 694 m 669 1196 l 749 1090 q 678 1038 711 1053 q 599 1023 646 1023 q 559 1026 578 1023 q 488 1044 543 1029 q 442 1052 460 1052 q 368 1019 410 1052 l 288 1124 q 433 1192 348 1192 q 507 1181 471 1192 l 555 1168 q 595 1162 577 1162 q 632 1170 616 1162 q 669 1196 648 1177 z "},"Œ":{"ha":1352,"x_min":37,"x_max":1282,"o":"m 283 463 q 315 345 283 399 q 401 260 347 292 q 518 228 455 228 q 636 260 582 228 q 722 345 691 292 q 753 463 753 399 q 722 581 753 528 q 636 667 691 635 q 518 698 583 698 q 401 667 454 698 q 315 581 347 635 q 283 463 283 527 m 990 926 l 1282 926 l 1282 717 l 1093 717 q 1016 708 1038 717 q 986 682 998 701 q 974 643 974 663 q 986 603 974 623 q 1016 576 997 584 q 1047 568 1034 569 q 1091 566 1061 566 l 1282 566 l 1282 359 l 1091 359 q 985 284 985 359 q 997 244 985 264 q 1027 218 1009 225 q 1093 209 1046 209 l 1282 209 l 1282 0 l 990 0 q 865 13 912 0 q 780 59 817 26 q 519 -18 661 -18 q 277 45 388 -18 q 179 121 222 78 q 102 220 135 163 q 37 459 37 330 q 103 702 37 591 q 279 879 168 812 q 523 944 391 944 q 665 922 594 944 q 792 859 732 902 q 878 910 829 893 q 990 926 927 926 z "},"œ":{"ha":1164,"x_min":33,"x_max":1154,"o":"m 749 277 l 907 448 q 854 461 880 461 q 793 445 821 461 q 749 399 765 427 q 732 338 732 370 q 749 277 732 309 m 258 334 q 275 273 258 300 q 320 229 292 245 q 381 212 349 212 q 442 229 414 212 q 488 273 470 245 q 504 334 504 301 q 488 396 504 368 q 443 441 471 424 q 381 457 414 457 q 320 441 348 457 q 275 396 292 424 q 258 334 258 368 m 1061 264 l 1116 43 q 892 -14 1011 -14 q 743 9 810 -14 q 621 82 676 33 q 387 -14 515 -14 q 254 13 316 -14 q 140 89 190 40 q 62 201 90 138 q 33 333 33 264 q 82 504 33 424 q 140 577 107 544 q 214 634 173 610 q 387 683 296 683 q 616 591 513 683 q 725 661 669 640 q 859 683 783 683 q 1154 517 1047 683 l 872 212 q 901 208 884 208 q 1061 264 974 208 z "},"–":{"ha":679,"x_min":74,"x_max":604,"o":"m 604 256 l 74 256 l 74 460 l 604 460 l 604 256 z "},"—":{"ha":1537,"x_min":74,"x_max":1463,"o":"m 1463 256 l 74 256 l 74 460 l 1463 460 l 1463 256 z "},"“":{"ha":687,"x_min":86,"x_max":601,"o":"m 472 926 l 590 926 q 527 806 564 887 l 521 795 q 601 679 601 758 q 565 593 601 629 q 479 557 529 557 q 395 593 430 557 q 359 677 359 629 q 385 774 359 718 q 472 926 410 829 m 199 926 l 317 926 q 254 806 287 878 l 248 795 q 328 679 328 758 q 312 618 328 646 q 267 574 296 590 q 206 557 239 557 q 146 574 174 557 q 102 618 119 590 q 86 677 86 646 q 112 775 86 716 q 199 926 138 832 z "},"”":{"ha":687,"x_min":86,"x_max":601,"o":"m 488 576 l 370 576 q 433 696 400 624 l 439 707 q 359 823 359 745 q 375 884 359 857 q 420 928 390 910 q 481 944 448 944 q 541 928 513 944 q 585 884 568 912 q 601 825 601 856 q 590 764 601 796 q 554 685 580 734 q 488 576 524 629 m 215 576 l 98 576 q 160 696 130 628 l 166 707 q 86 823 86 745 q 102 884 86 857 q 147 928 117 910 q 208 944 176 944 q 268 928 240 944 q 312 884 296 912 q 328 825 328 856 q 317 762 328 798 q 278 679 304 726 q 215 576 252 632 z "},"‘":{"ha":414,"x_min":86,"x_max":328,"o":"m 199 926 l 317 926 q 254 806 287 878 l 248 795 q 328 679 328 758 q 312 618 328 646 q 267 574 296 590 q 206 557 239 557 q 146 574 174 557 q 102 618 119 590 q 86 677 86 646 q 112 775 86 716 q 199 926 138 832 z "},"’":{"ha":414,"x_min":86,"x_max":328,"o":"m 215 576 l 98 576 q 160 696 130 628 l 166 707 q 86 823 86 745 q 102 884 86 857 q 147 928 117 910 q 208 944 176 944 q 268 928 240 944 q 312 884 296 912 q 328 825 328 856 q 317 762 328 798 q 278 679 304 726 q 215 576 252 632 z "},"÷":{"ha":555,"x_min":46,"x_max":509,"o":"m 56 916 l 56 9 l 500 9 l 500 916 l 56 916 m 509 0 l 46 0 l 46 926 l 509 926 l 509 0 z "},"◊":{"ha":555,"x_min":46,"x_max":509,"o":"m 56 916 l 56 9 l 500 9 l 500 916 l 56 916 m 509 0 l 46 0 l 46 926 l 509 926 l 509 0 z "},"ÿ":{"ha":745,"x_min":65,"x_max":675,"o":"m 65 301 l 65 672 l 292 672 l 292 371 l 292 347 q 311 272 292 296 q 370 248 331 248 q 431 272 412 248 q 449 353 449 296 l 449 374 l 449 672 l 675 672 l 675 150 l 675 102 q 656 -40 675 17 q 591 -150 637 -98 q 513 -217 556 -191 q 416 -256 470 -243 q 296 -269 363 -269 q 148 -252 222 -269 l 148 -50 q 271 -75 213 -75 q 387 -41 345 -75 q 449 65 430 -6 q 363 31 398 41 q 292 22 330 22 q 125 90 184 22 q 65 282 65 157 l 65 301 m 422 846 q 449 912 422 885 q 514 939 476 939 q 580 912 553 939 q 607 846 607 885 q 580 781 607 808 q 514 754 553 754 q 449 781 476 754 q 422 846 422 808 m 128 846 q 155 912 128 885 q 220 939 182 939 q 286 912 259 939 q 313 846 313 885 q 286 781 313 808 q 220 754 259 754 q 155 781 182 754 q 128 846 128 808 z "},"Ÿ":{"ha":810,"x_min":46,"x_max":764,"o":"m 529 0 l 281 0 l 281 294 q 116 418 177 337 q 62 528 78 470 q 46 676 46 585 l 46 705 l 46 926 l 294 926 l 294 673 l 294 648 q 324 552 295 585 q 406 518 354 518 q 487 553 458 518 q 517 648 517 589 l 517 673 l 517 926 l 764 926 l 764 705 l 764 676 q 746 515 764 576 q 679 399 728 455 q 614 340 646 362 q 529 294 578 315 l 529 0 m 460 1107 q 488 1173 460 1146 q 553 1200 515 1200 q 618 1173 591 1200 q 646 1107 646 1146 q 618 1042 646 1069 q 553 1015 591 1015 q 488 1042 515 1015 q 460 1107 460 1069 m 167 1107 q 194 1173 167 1146 q 259 1200 221 1200 q 325 1173 298 1200 q 352 1107 352 1146 q 325 1042 352 1069 q 259 1015 298 1015 q 194 1042 221 1015 q 167 1107 167 1069 z "},"∕":{"ha":555,"x_min":46,"x_max":509,"o":"m 56 916 l 56 9 l 500 9 l 500 916 l 56 916 m 509 0 l 46 0 l 46 926 l 509 926 l 509 0 z "},"¤":{"ha":555,"x_min":46,"x_max":509,"o":"m 56 916 l 56 9 l 500 9 l 500 916 l 56 916 m 509 0 l 46 0 l 46 926 l 509 926 l 509 0 z "},"‹":{"ha":416,"x_min":74,"x_max":342,"o":"m 342 91 l 180 91 l 74 347 l 180 595 l 342 595 l 236 347 l 342 91 z "},"›":{"ha":416,"x_min":74,"x_max":342,"o":"m 342 347 l 236 91 l 74 91 l 180 347 l 74 595 l 236 595 l 342 347 z "},"":{"ha":555,"x_min":46,"x_max":509,"o":"m 56 916 l 56 9 l 500 9 l 500 916 l 56 916 m 509 0 l 46 0 l 46 926 l 509 926 l 509 0 z "},"":{"ha":555,"x_min":46,"x_max":509,"o":"m 56 916 l 56 9 l 500 9 l 500 916 l 56 916 m 509 0 l 46 0 l 46 926 l 509 926 l 509 0 z "},"‡":{"ha":555,"x_min":46,"x_max":509,"o":"m 56 916 l 56 9 l 500 9 l 500 916 l 56 916 m 509 0 l 46 0 l 46 926 l 509 926 l 509 0 z "},"·":{"ha":414,"x_min":65,"x_max":349,"o":"m 65 472 q 84 544 65 512 q 136 595 103 576 q 207 614 168 614 q 279 595 247 614 q 330 544 311 576 q 349 472 349 512 q 308 372 349 413 q 207 330 266 330 q 107 372 149 330 q 65 472 65 414 z "},"∙":{"ha":414,"x_min":65,"x_max":349,"o":"m 65 472 q 84 544 65 512 q 136 595 103 576 q 207 614 168 614 q 279 595 247 614 q 330 544 311 576 q 349 472 349 512 q 308 372 349 413 q 207 330 266 330 q 107 372 149 330 q 65 472 65 414 z "},"‚":{"ha":555,"x_min":46,"x_max":509,"o":"m 56 916 l 56 9 l 500 9 l 500 916 l 56 916 m 509 0 l 46 0 l 46 926 l 509 926 l 509 0 z "},"„":{"ha":687,"x_min":86,"x_max":601,"o":"m 488 -134 l 370 -134 q 433 -15 400 -87 l 439 -3 q 359 113 359 34 q 375 174 359 145 q 420 218 391 201 q 481 234 448 234 q 541 218 513 234 q 585 174 568 201 q 601 115 601 146 q 575 16 601 74 q 488 -134 549 -42 m 215 -134 l 98 -134 q 160 -15 130 -83 l 166 -3 q 86 113 86 34 q 102 174 86 145 q 147 218 119 201 q 208 234 176 234 q 268 218 241 234 q 312 174 296 201 q 328 115 328 146 q 300 14 328 75 q 215 -134 274 -44 z "},"‰":{"ha":1603,"x_min":46,"x_max":1557,"o":"m 1257 211 q 1278 161 1257 182 q 1328 140 1299 140 q 1378 161 1358 140 q 1398 211 1398 182 q 1378 261 1398 241 q 1328 281 1358 281 q 1278 261 1299 281 q 1257 211 1257 241 m 205 715 q 226 666 205 687 q 275 644 246 644 q 326 665 304 644 q 347 715 347 686 q 326 765 347 744 q 275 786 304 786 q 226 765 246 786 q 205 715 205 744 m 756 211 q 777 161 756 182 q 827 140 798 140 q 877 161 856 140 q 898 211 898 182 q 877 261 898 241 q 827 281 856 281 q 777 261 799 281 q 756 211 756 241 m 1099 211 q 1130 326 1099 273 q 1213 409 1160 378 q 1328 439 1266 439 q 1418 421 1377 439 q 1491 373 1459 403 q 1539 301 1521 342 q 1557 211 1557 260 q 1527 96 1557 149 q 1442 13 1495 43 q 1328 -18 1390 -18 q 1213 13 1265 -18 q 1130 96 1160 43 q 1099 211 1099 149 m 46 715 q 77 829 46 777 q 161 913 108 882 q 275 944 214 944 q 366 926 325 944 q 438 878 407 908 q 486 806 469 846 q 505 715 505 764 q 474 601 505 653 q 390 517 442 548 q 275 486 338 486 q 161 517 213 486 q 77 601 108 548 q 46 715 46 652 m 598 211 q 629 326 598 273 q 713 409 660 378 q 827 439 765 439 q 918 421 876 439 q 989 373 958 404 q 1038 301 1020 342 q 1056 211 1056 260 q 1025 96 1056 149 q 941 13 994 43 q 827 -18 889 -18 q 713 13 764 -18 q 629 96 660 43 q 598 211 598 149 m 368 0 l 145 0 l 731 926 l 954 926 l 368 0 z "},"Â":{"ha":857,"x_min":69,"x_max":787,"o":"m 353 463 l 540 463 l 540 553 q 526 642 540 612 q 487 684 513 667 q 429 700 460 700 q 368 682 395 700 q 328 633 340 663 q 317 553 317 609 l 317 463 l 317 463 l 318 253 l 317 253 l 317 0 l 69 0 l 69 552 q 78 658 69 614 q 104 743 86 703 q 151 816 123 783 q 274 911 201 877 q 429 944 345 944 q 578 913 509 944 q 700 823 648 882 q 767 707 746 769 q 787 552 787 645 l 787 0 l 540 0 l 540 253 l 353 253 l 353 463 m 391 1017 l 206 1017 l 336 1198 l 521 1198 l 650 1017 l 465 1017 l 428 1090 l 391 1017 z "},"Ê":{"ha":702,"x_min":41,"x_max":633,"o":"m 443 209 l 633 209 l 633 0 l 340 0 l 302 0 q 106 83 179 3 q 58 163 75 119 q 41 251 41 206 q 154 463 41 375 q 57 665 57 546 q 73 754 57 709 q 117 833 87 797 q 184 890 147 869 q 340 926 246 926 l 357 926 l 633 926 l 633 717 l 443 717 l 406 717 q 346 695 368 715 q 323 643 323 675 q 349 589 323 610 q 410 566 373 566 l 441 566 l 633 566 l 633 359 l 441 359 l 421 359 q 358 338 381 358 q 334 284 334 317 q 358 231 334 252 q 417 209 382 209 l 443 209 m 334 1017 l 149 1017 l 278 1198 l 463 1198 l 593 1017 l 408 1017 l 370 1090 l 334 1017 z "},"Á":{"ha":857,"x_min":69,"x_max":787,"o":"m 353 463 l 540 463 l 540 553 q 526 642 540 612 q 487 684 513 667 q 429 700 460 700 q 368 682 395 700 q 328 633 340 663 q 317 553 317 609 l 317 463 l 317 463 l 318 253 l 317 253 l 317 0 l 69 0 l 69 552 q 78 658 69 614 q 104 743 86 703 q 151 816 123 783 q 274 911 201 877 q 429 944 345 944 q 578 913 509 944 q 700 823 648 882 q 767 707 746 769 q 787 552 787 645 l 787 0 l 540 0 l 540 253 l 353 253 l 353 463 m 495 1017 l 334 1017 l 439 1198 l 671 1198 l 495 1017 z "},"Ë":{"ha":702,"x_min":41,"x_max":633,"o":"m 443 209 l 633 209 l 633 0 l 340 0 l 302 0 q 106 83 179 3 q 58 163 75 119 q 41 251 41 206 q 154 463 41 375 q 57 665 57 546 q 73 754 57 709 q 117 833 87 797 q 184 890 147 869 q 340 926 246 926 l 357 926 l 633 926 l 633 717 l 443 717 l 406 717 q 346 695 368 715 q 323 643 323 675 q 349 589 323 610 q 410 566 373 566 l 441 566 l 633 566 l 633 359 l 441 359 l 421 359 q 358 338 381 358 q 334 284 334 317 q 358 231 334 252 q 417 209 382 209 l 443 209 m 405 1107 q 432 1173 405 1146 q 497 1200 459 1200 q 563 1173 536 1200 q 590 1107 590 1146 q 563 1042 590 1069 q 497 1015 536 1015 q 432 1042 459 1015 q 405 1107 405 1069 m 111 1107 q 138 1173 111 1146 q 203 1200 165 1200 q 269 1173 242 1200 q 296 1107 296 1146 q 269 1042 296 1069 q 203 1015 242 1015 q 138 1042 165 1015 q 111 1107 111 1069 z "},"È":{"ha":702,"x_min":41,"x_max":633,"o":"m 443 209 l 633 209 l 633 0 l 340 0 l 302 0 q 106 83 179 3 q 58 163 75 119 q 41 251 41 206 q 154 463 41 375 q 57 665 57 546 q 73 754 57 709 q 117 833 87 797 q 184 890 147 869 q 340 926 246 926 l 357 926 l 633 926 l 633 717 l 443 717 l 406 717 q 346 695 368 715 q 323 643 323 675 q 349 589 323 610 q 410 566 373 566 l 441 566 l 633 566 l 633 359 l 441 359 l 421 359 q 358 338 381 358 q 334 284 334 317 q 358 231 334 252 q 417 209 382 209 l 443 209 m 361 1200 l 468 1019 l 306 1019 l 130 1200 l 361 1200 z "},"Í":{"ha":395,"x_min":74,"x_max":451,"o":"m 321 0 l 74 0 l 74 926 l 321 926 l 321 0 m 275 1017 l 113 1017 l 219 1198 l 451 1198 l 275 1017 z "},"Î":{"ha":395,"x_min":-24,"x_max":420,"o":"m 321 0 l 74 0 l 74 926 l 321 926 l 321 0 m 161 1017 l -24 1017 l 105 1198 l 290 1198 l 420 1017 l 235 1017 l 197 1090 l 161 1017 z "},"Ï":{"ha":395,"x_min":-41,"x_max":437,"o":"m 321 0 l 74 0 l 74 926 l 321 926 l 321 0 m 252 1107 q 279 1173 252 1146 q 345 1200 307 1200 q 410 1173 383 1200 q 437 1107 437 1146 q 410 1042 437 1069 q 345 1015 383 1015 q 279 1042 307 1015 q 252 1107 252 1069 m -41 1107 q -14 1173 -41 1146 q 51 1200 13 1200 q 117 1173 90 1200 q 144 1107 144 1146 q 117 1042 144 1069 q 51 1015 90 1015 q -14 1042 13 1015 q -41 1107 -41 1069 z "},"Ì":{"ha":395,"x_min":-55,"x_max":321,"o":"m 321 0 l 74 0 l 74 926 l 321 926 l 321 0 m 176 1200 l 283 1019 l 121 1019 l -55 1200 l 176 1200 z "},"Ó":{"ha":1037,"x_min":37,"x_max":1000,"o":"m 526 228 q 636 260 585 230 q 722 345 691 292 q 753 463 753 399 q 722 581 753 528 q 636 667 691 635 q 526 698 586 696 l 526 944 q 760 880 652 942 q 935 704 871 814 q 1000 463 1000 593 q 935 222 1000 333 q 760 47 871 111 q 526 -18 652 -16 l 526 228 m 478 694 q 401 667 437 688 q 315 581 347 635 q 283 463 283 527 q 315 345 283 399 q 401 260 347 292 q 478 231 437 238 l 478 -17 q 277 46 371 -8 q 102 222 166 111 q 37 463 37 333 q 102 705 37 593 q 277 880 165 815 q 478 943 371 934 l 478 694 m 578 1017 l 417 1017 l 523 1198 l 755 1198 l 578 1017 z "},"Ô":{"ha":1037,"x_min":37,"x_max":1000,"o":"m 526 228 q 636 260 585 230 q 722 345 691 292 q 753 463 753 399 q 722 581 753 528 q 636 667 691 635 q 526 698 586 696 l 526 944 q 760 880 652 942 q 935 704 871 814 q 1000 463 1000 593 q 935 222 1000 333 q 760 47 871 111 q 526 -18 652 -16 l 526 228 m 478 694 q 401 667 437 688 q 315 581 347 635 q 283 463 283 527 q 315 345 283 399 q 401 260 347 292 q 478 231 437 238 l 478 -17 q 277 46 371 -8 q 102 222 166 111 q 37 463 37 333 q 102 705 37 593 q 277 880 165 815 q 478 943 371 934 l 478 694 m 481 1017 l 296 1017 l 426 1198 l 611 1198 l 741 1017 l 555 1017 l 518 1090 l 481 1017 z "},"":{"ha":555,"x_min":46,"x_max":509,"o":"m 56 916 l 56 9 l 500 9 l 500 916 l 56 916 m 509 0 l 46 0 l 46 926 l 509 926 l 509 0 z "},"Ò":{"ha":1037,"x_min":37,"x_max":1000,"o":"m 526 228 q 636 260 585 230 q 722 345 691 292 q 753 463 753 399 q 722 581 753 528 q 636 667 691 635 q 526 698 586 696 l 526 944 q 760 880 652 942 q 935 704 871 814 q 1000 463 1000 593 q 935 222 1000 333 q 760 47 871 111 q 526 -18 652 -16 l 526 228 m 478 694 q 401 667 437 688 q 315 581 347 635 q 283 463 283 527 q 315 345 283 399 q 401 260 347 292 q 478 231 437 238 l 478 -17 q 277 46 371 -8 q 102 222 166 111 q 37 463 37 333 q 102 705 37 593 q 277 880 165 815 q 478 943 371 934 l 478 694 m 481 1200 l 588 1019 l 426 1019 l 250 1200 l 481 1200 z "},"Ú":{"ha":857,"x_min":69,"x_max":787,"o":"m 69 408 l 69 926 l 317 926 l 317 373 q 331 284 317 312 q 372 242 345 257 q 429 226 398 226 q 509 260 478 226 q 540 349 540 295 l 540 373 l 540 926 l 787 926 l 787 408 l 787 374 q 764 212 787 278 q 688 90 741 145 q 570 9 637 37 q 429 -18 503 -18 q 279 12 349 -18 q 157 103 212 42 q 107 177 126 138 q 78 264 87 216 q 69 374 69 309 l 69 408 m 505 1017 l 343 1017 l 449 1198 l 681 1198 l 505 1017 z "},"Û":{"ha":857,"x_min":69,"x_max":787,"o":"m 69 408 l 69 926 l 317 926 l 317 373 q 331 284 317 312 q 372 242 345 257 q 429 226 398 226 q 509 260 478 226 q 540 349 540 295 l 540 373 l 540 926 l 787 926 l 787 408 l 787 374 q 764 212 787 278 q 688 90 741 145 q 570 9 637 37 q 429 -18 503 -18 q 279 12 349 -18 q 157 103 212 42 q 107 177 126 138 q 78 264 87 216 q 69 374 69 309 l 69 408 m 391 1017 l 206 1017 l 336 1198 l 521 1198 l 650 1017 l 465 1017 l 428 1090 l 391 1017 z "},"Ù":{"ha":857,"x_min":69,"x_max":787,"o":"m 69 408 l 69 926 l 317 926 l 317 373 q 331 284 317 312 q 372 242 345 257 q 429 226 398 226 q 509 260 478 226 q 540 349 540 295 l 540 373 l 540 926 l 787 926 l 787 408 l 787 374 q 764 212 787 278 q 688 90 741 145 q 570 9 637 37 q 429 -18 503 -18 q 279 12 349 -18 q 157 103 212 42 q 107 177 126 138 q 78 264 87 216 q 69 374 69 309 l 69 408 m 389 1200 l 496 1019 l 334 1019 l 158 1200 l 389 1200 z "},"ı":{"ha":366,"x_min":69,"x_max":296,"o":"m 296 0 l 69 0 l 69 672 l 296 672 l 296 0 z "},"ˆ":{"ha":629,"x_min":93,"x_max":537,"o":"m 278 756 l 93 756 l 222 937 l 408 937 l 537 756 l 352 756 l 315 829 l 278 756 z "},"˜":{"ha":648,"x_min":93,"x_max":555,"o":"m 474 935 l 555 829 q 484 777 516 792 q 404 762 452 762 q 364 765 383 762 q 294 783 349 768 q 248 791 265 791 q 173 758 215 791 l 93 863 q 238 931 153 931 q 312 920 277 931 l 361 907 q 401 901 382 901 q 437 909 421 901 q 474 935 453 916 z "},"¯":{"ha":555,"x_min":46,"x_max":509,"o":"m 56 916 l 56 9 l 500 9 l 500 916 l 56 916 m 509 0 l 46 0 l 46 926 l 509 926 l 509 0 z "},"˘":{"ha":555,"x_min":46,"x_max":509,"o":"m 56 916 l 56 9 l 500 9 l 500 916 l 56 916 m 509 0 l 46 0 l 46 926 l 509 926 l 509 0 z "},"˙":{"ha":555,"x_min":46,"x_max":509,"o":"m 56 916 l 56 9 l 500 9 l 500 916 l 56 916 m 509 0 l 46 0 l 46 926 l 509 926 l 509 0 z "},"˚":{"ha":406,"x_min":93,"x_max":313,"o":"m 166 846 q 177 820 166 831 q 203 809 188 809 q 229 820 218 809 q 240 846 240 831 q 229 873 240 863 q 203 883 218 883 q 177 873 189 883 q 166 846 166 863 m 93 846 q 125 923 93 892 q 203 954 157 954 q 281 923 250 954 q 313 846 313 891 q 281 770 313 802 q 203 739 249 739 q 125 770 159 739 q 93 846 93 802 z "},"¸":{"ha":555,"x_min":46,"x_max":509,"o":"m 56 916 l 56 9 l 500 9 l 500 916 l 56 916 m 509 0 l 46 0 l 46 926 l 509 926 l 509 0 z "},"ʺ":{"ha":555,"x_min":46,"x_max":509,"o":"m 56 916 l 56 9 l 500 9 l 500 916 l 56 916 m 509 0 l 46 0 l 46 926 l 509 926 l 509 0 z "},"˛":{"ha":555,"x_min":46,"x_max":509,"o":"m 56 916 l 56 9 l 500 9 l 500 916 l 56 916 m 509 0 l 46 0 l 46 926 l 509 926 l 509 0 z "},"ˇ":{"ha":555,"x_min":46,"x_max":509,"o":"m 56 916 l 56 9 l 500 9 l 500 916 l 56 916 m 509 0 l 46 0 l 46 926 l 509 926 l 509 0 z "}}}
